<svg xmlns="http://www.w3.org/2000/svg" xmlns:xlink="http://www.w3.org/1999/xlink" width="1024" zoomAndPan="magnify" viewBox="0 0 768 767.999994" height="1024" preserveAspectRatio="xMidYMid meet" version="1.0"><defs><clipPath id="71e4e85e93"><path d="M 291.21875 76.792969 L 476.339844 76.792969 L 476.339844 691.191406 L 291.21875 691.191406 Z M 291.21875 76.792969 " clip-rule="nonzero"/></clipPath><clipPath id="3c915eb46b"><path d="M 0.21875 0.792969 L 185.339844 0.792969 L 185.339844 615.191406 L 0.21875 615.191406 Z M 0.21875 0.792969 " clip-rule="nonzero"/></clipPath><clipPath id="49f5c430f8"><rect x="0" width="186" y="0" height="616"/></clipPath><clipPath id="0a804bdb4c"><path d="M 505.640625 76.792969 L 690.757812 76.792969 L 690.757812 691.191406 L 505.640625 691.191406 Z M 505.640625 76.792969 " clip-rule="nonzero"/></clipPath><clipPath id="25d818b9fd"><path d="M 0.640625 0.792969 L 185.757812 0.792969 L 185.757812 615.191406 L 0.640625 615.191406 Z M 0.640625 0.792969 " clip-rule="nonzero"/></clipPath><clipPath id="44f2506582"><rect x="0" width="186" y="0" height="616"/></clipPath><clipPath id="ce95289c0e"><path d="M 76.800781 76.792969 L 261.917969 76.792969 L 261.917969 691.191406 L 76.800781 691.191406 Z M 76.800781 76.792969 " clip-rule="nonzero"/></clipPath><clipPath id="9db386fcfa"><path d="M 0.800781 0.792969 L 185.917969 0.792969 L 185.917969 615.191406 L 0.800781 615.191406 Z M 0.800781 0.792969 " clip-rule="nonzero"/></clipPath><clipPath id="fdf8fbf1c9"><rect x="0" width="186" y="0" height="616"/></clipPath></defs><g clip-path="url(#71e4e85e93)"><g transform="matrix(1, 0, 0, 1, 291, 76)"><g clip-path="url(#49f5c430f8)"><g clip-path="url(#3c915eb46b)"><path fill="#000000" d="M 0.21875 615.191406 L 0.21875 0.542969 L 185.339844 0.542969 L 185.339844 615.191406 Z M 0.21875 615.191406 " fill-opacity="1" fill-rule="nonzero"/></g></g></g></g><g clip-path="url(#0a804bdb4c)"><g transform="matrix(1, 0, 0, 1, 505, 76)"><g clip-path="url(#44f2506582)"><g clip-path="url(#25d818b9fd)"><path fill="#000000" d="M 0.640625 615.191406 L 0.640625 0.542969 L 185.757812 0.542969 L 185.757812 615.191406 Z M 0.640625 615.191406 " fill-opacity="1" fill-rule="nonzero"/></g></g></g></g><g clip-path="url(#ce95289c0e)"><g transform="matrix(1, 0, 0, 1, 76, 76)"><g clip-path="url(#fdf8fbf1c9)"><g clip-path="url(#9db386fcfa)"><path fill="#000000" d="M 0.800781 615.191406 L 0.800781 0.542969 L 185.917969 0.542969 L 185.917969 615.191406 Z M 0.800781 615.191406 " fill-opacity="1" fill-rule="nonzero"/></g></g></g></g></svg>