<svg xmlns="http://www.w3.org/2000/svg" xmlns:xlink="http://www.w3.org/1999/xlink" width="4096" zoomAndPan="magnify" viewBox="0 0 3072 1535.999932" height="2048" preserveAspectRatio="xMidYMid meet" version="1.0"><defs><g/><clipPath id="a286811035"><rect x="0" width="2174" y="0" height="884"/></clipPath><clipPath id="006460e8d6"><path d="M 351.84375 504.933594 L 510.363281 504.933594 L 510.363281 1031.054688 L 351.84375 1031.054688 Z M 351.84375 504.933594 " clip-rule="nonzero"/></clipPath><clipPath id="7d12c49e77"><path d="M 0.84375 0.933594 L 159.363281 0.933594 L 159.363281 527.054688 L 0.84375 527.054688 Z M 0.84375 0.933594 " clip-rule="nonzero"/></clipPath><clipPath id="332c672fca"><rect x="0" width="160" y="0" height="528"/></clipPath><clipPath id="764e6bc6f3"><path d="M 549.324219 504.933594 L 707.84375 504.933594 L 707.84375 1031.054688 L 549.324219 1031.054688 Z M 549.324219 504.933594 " clip-rule="nonzero"/></clipPath><clipPath id="b589727ffc"><path d="M 0.324219 0.933594 L 158.84375 0.933594 L 158.84375 527.054688 L 0.324219 527.054688 Z M 0.324219 0.933594 " clip-rule="nonzero"/></clipPath><clipPath id="ea33b3bb50"><rect x="0" width="159" y="0" height="528"/></clipPath><clipPath id="caba8eaa01"><path d="M 153.59375 504.933594 L 312.117188 504.933594 L 312.117188 1031.054688 L 153.59375 1031.054688 Z M 153.59375 504.933594 " clip-rule="nonzero"/></clipPath><clipPath id="96085dbc63"><path d="M 0.59375 0.933594 L 159.117188 0.933594 L 159.117188 527.054688 L 0.59375 527.054688 Z M 0.59375 0.933594 " clip-rule="nonzero"/></clipPath><clipPath id="0a5078f8b3"><rect x="0" width="160" y="0" height="528"/></clipPath></defs><g transform="matrix(1, 0, 0, 1, 740, 326)"><g clip-path="url(#a286811035)"><g fill="#020202" fill-opacity="1"><g transform="translate(0.6783, 706.259736)"><g><path d="M 56.15625 0 L 56.15625 -529.609375 L 137.203125 -529.609375 L 137.203125 -305.6875 L 399.515625 -305.6875 L 399.515625 -529.609375 L 480.203125 -529.609375 L 480.203125 0 L 399.515625 0 L 399.515625 -236.015625 L 137.203125 -236.015625 L 137.203125 0 Z M 56.15625 0 "/></g></g></g><g fill="#020202" fill-opacity="1"><g transform="translate(522.467709, 706.259736)"><g><path d="M 219.3125 8.171875 C 180.445312 8.171875 147.03125 -0.238281 119.0625 -17.0625 C 91.101562 -33.882812 69.597656 -57.460938 54.546875 -87.796875 C 39.503906 -118.128906 31.984375 -153.554688 31.984375 -194.078125 C 31.984375 -234.117188 39.445312 -269.484375 54.375 -300.171875 C 69.3125 -330.859375 90.40625 -354.847656 117.65625 -372.140625 C 144.90625 -389.441406 176.65625 -398.09375 212.90625 -398.09375 C 236.601562 -398.09375 259.054688 -394.179688 280.265625 -386.359375 C 301.472656 -378.546875 320.3125 -366.519531 336.78125 -350.28125 C 353.25 -334.050781 366.222656 -313.4375 375.703125 -288.4375 C 385.179688 -263.4375 389.921875 -233.757812 389.921875 -199.40625 L 389.921875 -173.109375 L 73.21875 -173.109375 L 73.21875 -231.390625 L 349.765625 -231.390625 L 314.21875 -212.5625 C 314.21875 -236.488281 310.363281 -257.632812 302.65625 -276 C 294.957031 -294.363281 283.582031 -308.640625 268.53125 -318.828125 C 253.488281 -329.023438 235.066406 -334.125 213.265625 -334.125 C 191.460938 -334.125 172.800781 -328.910156 157.28125 -318.484375 C 141.757812 -308.054688 129.851562 -294.191406 121.5625 -276.890625 C 113.269531 -259.585938 109.125 -240.273438 109.125 -218.953125 L 109.125 -180.921875 C 109.125 -154.617188 113.679688 -132.109375 122.796875 -113.390625 C 131.921875 -94.671875 144.835938 -80.394531 161.546875 -70.5625 C 178.253906 -60.726562 197.742188 -55.8125 220.015625 -55.8125 C 234.953125 -55.8125 248.460938 -58 260.546875 -62.375 C 272.628906 -66.757812 282.9375 -73.21875 291.46875 -81.75 C 300 -90.28125 306.394531 -100.707031 310.65625 -113.03125 L 383.875 -99.53125 C 377.957031 -78.195312 367.414062 -59.414062 352.25 -43.1875 C 337.082031 -26.957031 318.179688 -14.335938 295.546875 -5.328125 C 272.921875 3.671875 247.507812 8.171875 219.3125 8.171875 Z M 219.3125 8.171875 "/></g></g></g><g fill="#020202" fill-opacity="1"><g transform="translate(928.385883, 706.259736)"><g><path d="M 127.953125 -231.046875 L 127.953125 0 L 50.125 0 L 50.125 -392.40625 L 124.765625 -392.40625 L 125.109375 -296.09375 L 115.171875 -296.09375 C 126.773438 -331.15625 143.59375 -356.921875 165.625 -373.390625 C 187.664062 -389.859375 214.328125 -398.09375 245.609375 -398.09375 C 272.390625 -398.09375 295.910156 -392.40625 316.171875 -381.03125 C 336.429688 -369.664062 352.25 -352.90625 363.625 -330.75 C 375 -308.59375 380.6875 -281.160156 380.6875 -248.453125 L 380.6875 0 L 303.203125 0 L 303.203125 -238.859375 C 303.203125 -267.765625 295.796875 -290.210938 280.984375 -306.203125 C 266.171875 -322.203125 245.847656 -330.203125 220.015625 -330.203125 C 202.484375 -330.203125 186.726562 -326.410156 172.75 -318.828125 C 158.769531 -311.242188 147.804688 -300.109375 139.859375 -285.421875 C 131.921875 -270.734375 127.953125 -252.609375 127.953125 -231.046875 Z M 127.953125 -231.046875 "/></g></g></g><g fill="#020202" fill-opacity="1"><g transform="translate(1344.967001, 706.259736)"><g><path d="M 50.125 0 L 50.125 -392.40625 L 125.109375 -392.40625 L 125.109375 -329.5 L 128.671875 -329.5 C 136.015625 -350.820312 148.394531 -367.523438 165.8125 -379.609375 C 183.226562 -391.703125 203.664062 -397.75 227.125 -397.75 C 232.34375 -397.75 237.972656 -397.566406 244.015625 -397.203125 C 250.054688 -396.847656 255.09375 -396.4375 259.125 -395.96875 L 259.125 -322.390625 C 256.28125 -323.097656 250.890625 -323.925781 242.953125 -324.875 C 235.015625 -325.820312 226.78125 -326.296875 218.25 -326.296875 C 201.1875 -326.296875 185.78125 -322.625 172.03125 -315.28125 C 158.289062 -307.9375 147.507812 -297.566406 139.6875 -284.171875 C 131.863281 -270.785156 127.953125 -255.085938 127.953125 -237.078125 L 127.953125 0 Z M 50.125 0 "/></g></g></g><g fill="#020202" fill-opacity="1"><g transform="translate(1609.067569, 706.259736)"><g><path d="M 50.125 0 L 50.125 -392.40625 L 127.953125 -392.40625 L 127.953125 0 Z M 89.21875 -453.90625 C 75.707031 -453.90625 64.210938 -458.46875 54.734375 -467.59375 C 45.253906 -476.71875 40.515625 -487.675781 40.515625 -500.46875 C 40.515625 -513.5 45.253906 -524.457031 54.734375 -533.34375 C 64.210938 -542.226562 75.707031 -546.671875 89.21875 -546.671875 C 102.71875 -546.671875 114.207031 -542.226562 123.6875 -533.34375 C 133.164062 -524.457031 137.90625 -513.5 137.90625 -500.46875 C 137.90625 -487.675781 133.164062 -476.71875 123.6875 -467.59375 C 114.207031 -458.46875 102.71875 -453.90625 89.21875 -453.90625 Z M 89.21875 -453.90625 "/></g></g></g><g fill="#020202" fill-opacity="1"><g transform="translate(1772.580279, 706.259736)"><g><path d="M 215.75 8.171875 C 179.019531 8.171875 146.851562 -0.296875 119.25 -17.234375 C 91.644531 -34.179688 70.195312 -57.878906 54.90625 -88.328125 C 39.625 -118.773438 31.984375 -154.140625 31.984375 -194.421875 C 31.984375 -235.179688 39.625 -270.84375 54.90625 -301.40625 C 70.195312 -331.976562 91.644531 -355.734375 119.25 -372.671875 C 146.851562 -389.617188 179.019531 -398.09375 215.75 -398.09375 C 236.84375 -398.09375 256.507812 -395.304688 274.75 -389.734375 C 293 -384.171875 309.410156 -376.117188 323.984375 -365.578125 C 338.554688 -355.035156 350.757812 -342.238281 360.59375 -327.1875 C 370.425781 -312.132812 377.476562 -295.25 381.75 -276.53125 L 307.453125 -262.671875 C 305.085938 -273.097656 301.238281 -282.578125 295.90625 -291.109375 C 290.570312 -299.640625 284.054688 -306.984375 276.359375 -313.140625 C 268.660156 -319.304688 259.773438 -324.046875 249.703125 -327.359375 C 239.628906 -330.679688 228.550781 -332.34375 216.46875 -332.34375 C 193.007812 -332.34375 173.457031 -326.238281 157.8125 -314.03125 C 142.175781 -301.832031 130.445312 -285.363281 122.625 -264.625 C 114.8125 -243.894531 110.90625 -220.492188 110.90625 -194.421875 C 110.90625 -168.835938 114.8125 -145.734375 122.625 -125.109375 C 130.445312 -104.492188 142.117188 -88.082031 157.640625 -75.875 C 173.160156 -63.675781 192.769531 -57.578125 216.46875 -57.578125 C 228.789062 -57.578125 240.046875 -59.296875 250.234375 -62.734375 C 260.421875 -66.171875 269.363281 -71.03125 277.0625 -77.3125 C 284.769531 -83.59375 291.285156 -91.175781 296.609375 -100.0625 C 301.941406 -108.945312 305.914062 -118.71875 308.53125 -129.375 L 382.453125 -115.875 C 378.429688 -96.675781 371.441406 -79.492188 361.484375 -64.328125 C 351.535156 -49.171875 339.273438 -36.140625 324.703125 -25.234375 C 310.128906 -14.335938 293.660156 -6.046875 275.296875 -0.359375 C 256.929688 5.328125 237.082031 8.171875 215.75 8.171875 Z M 215.75 8.171875 "/></g></g></g></g></g><g clip-path="url(#006460e8d6)"><g transform="matrix(1, 0, 0, 1, 351, 504)"><g clip-path="url(#332c672fca)"><g clip-path="url(#7d12c49e77)"><path fill="#4a6b5a" d="M 0.84375 527.054688 L 0.84375 0.71875 L 159.363281 0.71875 L 159.363281 527.054688 Z M 0.84375 527.054688 " fill-opacity="1" fill-rule="nonzero"/></g></g></g></g><g clip-path="url(#764e6bc6f3)"><g transform="matrix(1, 0, 0, 1, 549, 504)"><g clip-path="url(#ea33b3bb50)"><g clip-path="url(#b589727ffc)"><path fill="#9b6b4a" d="M 0.324219 527.054688 L 0.324219 0.71875 L 158.84375 0.71875 L 158.84375 527.054688 Z M 0.324219 527.054688 " fill-opacity="1" fill-rule="nonzero"/></g></g></g></g><g clip-path="url(#caba8eaa01)"><g transform="matrix(1, 0, 0, 1, 153, 504)"><g clip-path="url(#0a5078f8b3)"><g clip-path="url(#96085dbc63)"><path fill="#3d5a80" d="M 0.59375 527.054688 L 0.59375 0.71875 L 159.117188 0.71875 L 159.117188 527.054688 Z M 0.59375 527.054688 " fill-opacity="1" fill-rule="nonzero"/></g></g></g></g></svg>