<svg xmlns="http://www.w3.org/2000/svg" xmlns:xlink="http://www.w3.org/1999/xlink" width="2048" zoomAndPan="magnify" viewBox="0 0 1536 767.999994" height="1024" preserveAspectRatio="xMidYMid meet" version="1.0"><defs><g/><clipPath id="5ae16740db"><rect x="0" width="1088" y="0" height="444"/></clipPath><clipPath id="c00c2041dc"><path d="M 175.921875 252.460938 L 255.179688 252.460938 L 255.179688 515.523438 L 175.921875 515.523438 Z M 175.921875 252.460938 " clip-rule="nonzero"/></clipPath><clipPath id="db9413dee8"><path d="M 0.921875 0.460938 L 80.179688 0.460938 L 80.179688 263.523438 L 0.921875 263.523438 Z M 0.921875 0.460938 " clip-rule="nonzero"/></clipPath><clipPath id="d602378513"><rect x="0" width="81" y="0" height="264"/></clipPath><clipPath id="5192591604"><path d="M 274.660156 252.460938 L 353.921875 252.460938 L 353.921875 515.523438 L 274.660156 515.523438 Z M 274.660156 252.460938 " clip-rule="nonzero"/></clipPath><clipPath id="d7352227d7"><path d="M 0.660156 0.460938 L 79.921875 0.460938 L 79.921875 263.523438 L 0.660156 263.523438 Z M 0.660156 0.460938 " clip-rule="nonzero"/></clipPath><clipPath id="f3a980d4f2"><rect x="0" width="80" y="0" height="264"/></clipPath><clipPath id="7edcdfad91"><path d="M 76.796875 252.460938 L 156.058594 252.460938 L 156.058594 515.523438 L 76.796875 515.523438 Z M 76.796875 252.460938 " clip-rule="nonzero"/></clipPath><clipPath id="37671c3589"><path d="M 0.796875 0.460938 L 80.058594 0.460938 L 80.058594 263.523438 L 0.796875 263.523438 Z M 0.796875 0.460938 " clip-rule="nonzero"/></clipPath><clipPath id="82215fc784"><rect x="0" width="81" y="0" height="264"/></clipPath></defs><g transform="matrix(1, 0, 0, 1, 370, 162)"><g clip-path="url(#5ae16740db)"><g fill="#020202" fill-opacity="1"><g transform="translate(0.339136, 354.12992)"><g><path d="M 28.078125 0 L 28.078125 -264.796875 L 68.59375 -264.796875 L 68.59375 -152.84375 L 199.75 -152.84375 L 199.75 -264.796875 L 240.09375 -264.796875 L 240.09375 0 L 199.75 0 L 199.75 -118 L 68.59375 -118 L 68.59375 0 Z M 28.078125 0 "/></g></g></g><g fill="#020202" fill-opacity="1"><g transform="translate(261.233851, 354.12992)"><g><path d="M 109.65625 4.09375 C 90.21875 4.09375 73.507812 -0.113281 59.53125 -8.53125 C 45.550781 -16.945312 34.800781 -28.734375 27.28125 -43.890625 C 19.757812 -59.054688 16 -76.769531 16 -97.03125 C 16 -117.050781 19.726562 -134.734375 27.1875 -150.078125 C 34.65625 -165.421875 45.203125 -177.414062 58.828125 -186.0625 C 72.453125 -194.71875 88.328125 -199.046875 106.453125 -199.046875 C 118.296875 -199.046875 129.519531 -197.085938 140.125 -193.171875 C 150.726562 -189.265625 160.144531 -183.253906 168.375 -175.140625 C 176.613281 -167.023438 183.101562 -156.71875 187.84375 -144.21875 C 192.582031 -131.71875 194.953125 -116.878906 194.953125 -99.703125 L 194.953125 -86.546875 L 36.609375 -86.546875 L 36.609375 -115.6875 L 174.875 -115.6875 L 157.109375 -106.28125 C 157.109375 -118.238281 155.179688 -128.804688 151.328125 -137.984375 C 147.472656 -147.171875 141.785156 -154.3125 134.265625 -159.40625 C 126.742188 -164.507812 117.53125 -167.0625 106.625 -167.0625 C 95.726562 -167.0625 86.398438 -164.453125 78.640625 -159.234375 C 70.878906 -154.023438 64.925781 -147.09375 60.78125 -138.4375 C 56.632812 -129.789062 54.5625 -120.132812 54.5625 -109.46875 L 54.5625 -90.453125 C 54.5625 -77.304688 56.84375 -66.050781 61.40625 -56.6875 C 65.96875 -47.332031 72.421875 -40.195312 80.765625 -35.28125 C 89.117188 -30.363281 98.867188 -27.90625 110.015625 -27.90625 C 117.472656 -27.90625 124.222656 -29 130.265625 -31.1875 C 136.304688 -33.382812 141.457031 -36.613281 145.71875 -40.875 C 149.988281 -45.132812 153.191406 -50.347656 155.328125 -56.515625 L 191.9375 -49.765625 C 188.976562 -39.097656 183.707031 -29.707031 176.125 -21.59375 C 168.539062 -13.476562 159.085938 -7.164062 147.765625 -2.65625 C 136.453125 1.84375 123.75 4.09375 109.65625 4.09375 Z M 109.65625 4.09375 "/></g></g></g><g fill="#020202" fill-opacity="1"><g transform="translate(464.192947, 354.12992)"><g><path d="M 63.984375 -115.515625 L 63.984375 0 L 25.0625 0 L 25.0625 -196.203125 L 62.375 -196.203125 L 62.5625 -148.046875 L 57.578125 -148.046875 C 63.390625 -165.578125 71.800781 -178.457031 82.8125 -186.6875 C 93.832031 -194.925781 107.160156 -199.046875 122.796875 -199.046875 C 136.191406 -199.046875 147.953125 -196.203125 158.078125 -190.515625 C 168.210938 -184.828125 176.125 -176.441406 181.8125 -165.359375 C 187.5 -154.285156 190.34375 -140.570312 190.34375 -124.21875 L 190.34375 0 L 151.59375 0 L 151.59375 -119.421875 C 151.59375 -133.878906 147.890625 -145.101562 140.484375 -153.09375 C 133.078125 -161.09375 122.921875 -165.09375 110.015625 -165.09375 C 101.242188 -165.09375 93.363281 -163.195312 86.375 -159.40625 C 79.382812 -155.625 73.90625 -150.054688 69.9375 -142.703125 C 65.96875 -135.359375 63.984375 -126.296875 63.984375 -115.515625 Z M 63.984375 -115.515625 "/></g></g></g><g fill="#020202" fill-opacity="1"><g transform="translate(672.483515, 354.12992)"><g><path d="M 25.0625 0 L 25.0625 -196.203125 L 62.5625 -196.203125 L 62.5625 -164.75 L 64.328125 -164.75 C 68.003906 -175.40625 74.195312 -183.753906 82.90625 -189.796875 C 91.613281 -195.847656 101.832031 -198.875 113.5625 -198.875 C 116.164062 -198.875 118.976562 -198.78125 122 -198.59375 C 125.019531 -198.414062 127.539062 -198.210938 129.5625 -197.984375 L 129.5625 -161.1875 C 128.132812 -161.539062 125.4375 -161.953125 121.46875 -162.421875 C 117.5 -162.898438 113.382812 -163.140625 109.125 -163.140625 C 100.59375 -163.140625 92.890625 -161.300781 86.015625 -157.625 C 79.140625 -153.957031 73.75 -148.773438 69.84375 -142.078125 C 65.9375 -135.390625 63.984375 -127.539062 63.984375 -118.53125 L 63.984375 0 Z M 25.0625 0 "/></g></g></g><g fill="#020202" fill-opacity="1"><g transform="translate(804.533804, 354.12992)"><g><path d="M 25.0625 0 L 25.0625 -196.203125 L 63.984375 -196.203125 L 63.984375 0 Z M 44.609375 -226.953125 C 37.847656 -226.953125 32.097656 -229.226562 27.359375 -233.78125 C 22.628906 -238.34375 20.265625 -243.828125 20.265625 -250.234375 C 20.265625 -256.742188 22.628906 -262.21875 27.359375 -266.65625 C 32.097656 -271.101562 37.847656 -273.328125 44.609375 -273.328125 C 51.359375 -273.328125 57.101562 -271.101562 61.84375 -266.65625 C 66.582031 -262.21875 68.953125 -256.742188 68.953125 -250.234375 C 68.953125 -243.828125 66.582031 -238.34375 61.84375 -233.78125 C 57.101562 -229.226562 51.359375 -226.953125 44.609375 -226.953125 Z M 44.609375 -226.953125 "/></g></g></g><g fill="#020202" fill-opacity="1"><g transform="translate(886.290163, 354.12992)"><g><path d="M 107.875 4.09375 C 89.507812 4.09375 73.425781 -0.140625 59.625 -8.609375 C 45.820312 -17.085938 35.097656 -28.9375 27.453125 -44.15625 C 19.816406 -59.382812 16 -77.070312 16 -97.21875 C 16 -117.59375 19.816406 -135.421875 27.453125 -150.703125 C 35.097656 -165.984375 45.820312 -177.859375 59.625 -186.328125 C 73.425781 -194.804688 89.507812 -199.046875 107.875 -199.046875 C 118.414062 -199.046875 128.25 -197.648438 137.375 -194.859375 C 146.5 -192.078125 154.703125 -188.050781 161.984375 -182.78125 C 169.273438 -177.507812 175.378906 -171.113281 180.296875 -163.59375 C 185.210938 -156.070312 188.738281 -147.628906 190.875 -138.265625 L 153.734375 -131.328125 C 152.546875 -136.546875 150.617188 -141.285156 147.953125 -145.546875 C 145.285156 -149.816406 142.023438 -153.488281 138.171875 -156.5625 C 134.328125 -159.644531 129.882812 -162.015625 124.84375 -163.671875 C 119.8125 -165.335938 114.273438 -166.171875 108.234375 -166.171875 C 96.503906 -166.171875 86.726562 -163.117188 78.90625 -157.015625 C 71.082031 -150.910156 65.21875 -142.675781 61.3125 -132.3125 C 57.40625 -121.945312 55.453125 -110.25 55.453125 -97.21875 C 55.453125 -84.414062 57.40625 -72.859375 61.3125 -62.546875 C 65.21875 -52.242188 71.050781 -44.039062 78.8125 -37.9375 C 86.570312 -31.84375 96.378906 -28.796875 108.234375 -28.796875 C 114.390625 -28.796875 120.015625 -29.648438 125.109375 -31.359375 C 130.203125 -33.078125 134.675781 -35.503906 138.53125 -38.640625 C 142.382812 -41.785156 145.644531 -45.578125 148.3125 -50.015625 C 150.976562 -54.460938 152.960938 -59.351562 154.265625 -64.6875 L 191.21875 -57.9375 C 189.207031 -48.34375 185.710938 -39.753906 180.734375 -32.171875 C 175.765625 -24.585938 169.632812 -18.066406 162.34375 -12.609375 C 155.0625 -7.160156 146.828125 -3.015625 137.640625 -0.171875 C 128.460938 2.671875 118.539062 4.09375 107.875 4.09375 Z M 107.875 4.09375 "/></g></g></g></g></g><g clip-path="url(#c00c2041dc)"><g transform="matrix(1, 0, 0, 1, 175, 252)"><g clip-path="url(#d602378513)"><g clip-path="url(#db9413dee8)"><path fill="#4a6b5a" d="M 0.921875 263.523438 L 0.921875 0.355469 L 80.179688 0.355469 L 80.179688 263.523438 Z M 0.921875 263.523438 " fill-opacity="1" fill-rule="nonzero"/></g></g></g></g><g clip-path="url(#5192591604)"><g transform="matrix(1, 0, 0, 1, 274, 252)"><g clip-path="url(#f3a980d4f2)"><g clip-path="url(#d7352227d7)"><path fill="#9b6b4a" d="M 0.660156 263.523438 L 0.660156 0.355469 L 79.921875 0.355469 L 79.921875 263.523438 Z M 0.660156 263.523438 " fill-opacity="1" fill-rule="nonzero"/></g></g></g></g><g clip-path="url(#7edcdfad91)"><g transform="matrix(1, 0, 0, 1, 76, 252)"><g clip-path="url(#82215fc784)"><g clip-path="url(#37671c3589)"><path fill="#3d5a80" d="M 0.796875 263.523438 L 0.796875 0.355469 L 80.058594 0.355469 L 80.058594 263.523438 Z M 0.796875 263.523438 " fill-opacity="1" fill-rule="nonzero"/></g></g></g></g></svg>