<svg xmlns="http://www.w3.org/2000/svg" xmlns:xlink="http://www.w3.org/1999/xlink" width="1024" zoomAndPan="magnify" viewBox="0 0 768 383.999986" height="512" preserveAspectRatio="xMidYMid meet" version="1.0"><defs><g/><clipPath id="d72946a070"><rect x="0" width="544" y="0" height="222"/></clipPath><clipPath id="6923dd85c1"><path d="M 87.960938 126.222656 L 127.589844 126.222656 L 127.589844 257.753906 L 87.960938 257.753906 Z M 87.960938 126.222656 " clip-rule="nonzero"/></clipPath><clipPath id="eecad6db20"><path d="M 0.960938 0.222656 L 40.589844 0.222656 L 40.589844 131.753906 L 0.960938 131.753906 Z M 0.960938 0.222656 " clip-rule="nonzero"/></clipPath><clipPath id="06225d0d4d"><rect x="0" width="41" y="0" height="132"/></clipPath><clipPath id="32fcc0d81b"><path d="M 137.332031 126.222656 L 176.960938 126.222656 L 176.960938 257.753906 L 137.332031 257.753906 Z M 137.332031 126.222656 " clip-rule="nonzero"/></clipPath><clipPath id="6fb371c26f"><path d="M 0.332031 0.222656 L 39.960938 0.222656 L 39.960938 131.753906 L 0.332031 131.753906 Z M 0.332031 0.222656 " clip-rule="nonzero"/></clipPath><clipPath id="8e5195017a"><rect x="0" width="40" y="0" height="132"/></clipPath><clipPath id="61876b2883"><path d="M 38.398438 126.222656 L 78.027344 126.222656 L 78.027344 257.753906 L 38.398438 257.753906 Z M 38.398438 126.222656 " clip-rule="nonzero"/></clipPath><clipPath id="90c55e882a"><path d="M 0.398438 0.222656 L 40.027344 0.222656 L 40.027344 131.753906 L 0.398438 131.753906 Z M 0.398438 0.222656 " clip-rule="nonzero"/></clipPath><clipPath id="e185414357"><rect x="0" width="41" y="0" height="132"/></clipPath></defs><g transform="matrix(1, 0, 0, 1, 185, 81)"><g clip-path="url(#d72946a070)"><g fill="#020202" fill-opacity="1"><g transform="translate(0.169574, 177.064942)"><g><path d="M 14.046875 0 L 14.046875 -132.40625 L 34.296875 -132.40625 L 34.296875 -76.421875 L 99.875 -76.421875 L 99.875 -132.40625 L 120.046875 -132.40625 L 120.046875 0 L 99.875 0 L 99.875 -59 L 34.296875 -59 L 34.296875 0 Z M 14.046875 0 "/></g></g></g><g fill="#020202" fill-opacity="1"><g transform="translate(130.616928, 177.064942)"><g><path d="M 54.828125 2.046875 C 45.109375 2.046875 36.753906 -0.0546875 29.765625 -4.265625 C 22.773438 -8.472656 17.398438 -14.367188 13.640625 -21.953125 C 9.878906 -29.535156 8 -38.390625 8 -48.515625 C 8 -58.523438 9.863281 -67.363281 13.59375 -75.03125 C 17.320312 -82.707031 22.59375 -88.707031 29.40625 -93.03125 C 36.21875 -97.351562 44.160156 -99.515625 53.234375 -99.515625 C 59.148438 -99.515625 64.757812 -98.535156 70.0625 -96.578125 C 75.363281 -94.628906 80.070312 -91.625 84.1875 -87.5625 C 88.3125 -83.507812 91.554688 -78.359375 93.921875 -72.109375 C 96.296875 -65.859375 97.484375 -58.4375 97.484375 -49.84375 L 97.484375 -43.28125 L 18.3125 -43.28125 L 18.3125 -57.84375 L 87.4375 -57.84375 L 78.546875 -53.140625 C 78.546875 -59.117188 77.582031 -64.40625 75.65625 -69 C 73.738281 -73.59375 70.894531 -77.160156 67.125 -79.703125 C 63.363281 -82.253906 58.757812 -83.53125 53.3125 -83.53125 C 47.863281 -83.53125 43.195312 -82.222656 39.3125 -79.609375 C 35.4375 -77.003906 32.460938 -73.539062 30.390625 -69.21875 C 28.316406 -64.894531 27.28125 -60.066406 27.28125 -54.734375 L 27.28125 -45.234375 C 27.28125 -38.648438 28.421875 -33.019531 30.703125 -28.34375 C 32.984375 -23.664062 36.210938 -20.097656 40.390625 -17.640625 C 44.566406 -15.179688 49.4375 -13.953125 55 -13.953125 C 58.738281 -13.953125 62.117188 -14.5 65.140625 -15.59375 C 68.160156 -16.6875 70.734375 -18.300781 72.859375 -20.4375 C 74.992188 -22.570312 76.59375 -25.175781 77.65625 -28.25 L 95.96875 -24.875 C 94.488281 -19.550781 91.851562 -14.859375 88.0625 -10.796875 C 84.269531 -6.734375 79.546875 -3.578125 73.890625 -1.328125 C 68.234375 0.921875 61.878906 2.046875 54.828125 2.046875 Z M 54.828125 2.046875 "/></g></g></g><g fill="#020202" fill-opacity="1"><g transform="translate(232.096473, 177.064942)"><g><path d="M 31.984375 -57.765625 L 31.984375 0 L 12.53125 0 L 12.53125 -98.09375 L 31.1875 -98.09375 L 31.28125 -74.015625 L 28.796875 -74.015625 C 31.691406 -82.785156 35.894531 -89.226562 41.40625 -93.34375 C 46.914062 -97.457031 53.582031 -99.515625 61.40625 -99.515625 C 68.09375 -99.515625 73.96875 -98.09375 79.03125 -95.25 C 84.101562 -92.414062 88.0625 -88.226562 90.90625 -82.6875 C 93.75 -77.144531 95.171875 -70.285156 95.171875 -62.109375 L 95.171875 0 L 75.796875 0 L 75.796875 -59.71875 C 75.796875 -66.9375 73.941406 -72.546875 70.234375 -76.546875 C 66.535156 -80.546875 61.457031 -82.546875 55 -82.546875 C 50.613281 -82.546875 46.671875 -81.597656 43.171875 -79.703125 C 39.679688 -77.804688 36.941406 -75.019531 34.953125 -71.34375 C 32.972656 -67.675781 31.984375 -63.148438 31.984375 -57.765625 Z M 31.984375 -57.765625 "/></g></g></g><g fill="#020202" fill-opacity="1"><g transform="translate(336.241753, 177.064942)"><g><path d="M 12.53125 0 L 12.53125 -98.09375 L 31.28125 -98.09375 L 31.28125 -82.375 L 32.171875 -82.375 C 34.003906 -87.707031 37.097656 -91.882812 41.453125 -94.90625 C 45.804688 -97.925781 50.914062 -99.4375 56.78125 -99.4375 C 58.082031 -99.4375 59.488281 -99.390625 61 -99.296875 C 62.507812 -99.210938 63.769531 -99.109375 64.78125 -98.984375 L 64.78125 -80.59375 C 64.070312 -80.769531 62.722656 -80.976562 60.734375 -81.21875 C 58.753906 -81.457031 56.695312 -81.578125 54.5625 -81.578125 C 50.289062 -81.578125 46.4375 -80.65625 43 -78.8125 C 39.570312 -76.976562 36.878906 -74.382812 34.921875 -71.03125 C 32.960938 -67.6875 31.984375 -63.765625 31.984375 -59.265625 L 31.984375 0 Z M 12.53125 0 "/></g></g></g><g fill="#020202" fill-opacity="1"><g transform="translate(402.266896, 177.064942)"><g><path d="M 12.53125 0 L 12.53125 -98.09375 L 31.984375 -98.09375 L 31.984375 0 Z M 22.3125 -113.46875 C 18.9375 -113.46875 16.0625 -114.609375 13.6875 -116.890625 C 11.320312 -119.171875 10.140625 -121.910156 10.140625 -125.109375 C 10.140625 -128.367188 11.320312 -131.109375 13.6875 -133.328125 C 16.0625 -135.554688 18.9375 -136.671875 22.3125 -136.671875 C 25.6875 -136.671875 28.554688 -135.554688 30.921875 -133.328125 C 33.296875 -131.109375 34.484375 -128.367188 34.484375 -125.109375 C 34.484375 -121.910156 33.296875 -119.171875 30.921875 -116.890625 C 28.554688 -114.609375 25.6875 -113.46875 22.3125 -113.46875 Z M 22.3125 -113.46875 "/></g></g></g><g fill="#020202" fill-opacity="1"><g transform="translate(443.145074, 177.064942)"><g><path d="M 53.9375 2.046875 C 44.757812 2.046875 36.71875 -0.0664062 29.8125 -4.296875 C 22.90625 -8.535156 17.539062 -14.460938 13.71875 -22.078125 C 9.90625 -29.691406 8 -38.535156 8 -48.609375 C 8 -58.796875 9.90625 -67.707031 13.71875 -75.34375 C 17.539062 -82.988281 22.90625 -88.925781 29.8125 -93.15625 C 36.71875 -97.394531 44.757812 -99.515625 53.9375 -99.515625 C 59.207031 -99.515625 64.125 -98.816406 68.6875 -97.421875 C 73.25 -96.035156 77.347656 -94.023438 80.984375 -91.390625 C 84.628906 -88.753906 87.679688 -85.554688 90.140625 -81.796875 C 92.597656 -78.035156 94.363281 -73.8125 95.4375 -69.125 L 76.859375 -65.671875 C 76.265625 -68.273438 75.300781 -70.640625 73.96875 -72.765625 C 72.632812 -74.898438 71.003906 -76.738281 69.078125 -78.28125 C 67.160156 -79.820312 64.941406 -81.003906 62.421875 -81.828125 C 59.898438 -82.660156 57.128906 -83.078125 54.109375 -83.078125 C 48.242188 -83.078125 43.359375 -81.550781 39.453125 -78.5 C 35.546875 -75.457031 32.613281 -71.34375 30.65625 -66.15625 C 28.695312 -60.96875 27.71875 -55.117188 27.71875 -48.609375 C 27.71875 -42.210938 28.695312 -36.4375 30.65625 -31.28125 C 32.613281 -26.125 35.53125 -22.019531 39.40625 -18.96875 C 43.289062 -15.914062 48.191406 -14.390625 54.109375 -14.390625 C 57.191406 -14.390625 60.003906 -14.816406 62.546875 -15.671875 C 65.097656 -16.535156 67.335938 -17.753906 69.265625 -19.328125 C 71.191406 -20.898438 72.820312 -22.796875 74.15625 -25.015625 C 75.488281 -27.234375 76.476562 -29.675781 77.125 -32.34375 L 95.609375 -28.96875 C 94.609375 -24.164062 92.863281 -19.867188 90.375 -16.078125 C 87.882812 -12.285156 84.816406 -9.023438 81.171875 -6.296875 C 77.523438 -3.578125 73.40625 -1.503906 68.8125 -0.078125 C 64.226562 1.335938 59.269531 2.046875 53.9375 2.046875 Z M 53.9375 2.046875 "/></g></g></g></g></g><g clip-path="url(#6923dd85c1)"><g transform="matrix(1, 0, 0, 1, 87, 126)"><g clip-path="url(#06225d0d4d)"><g clip-path="url(#eecad6db20)"><path fill="#4a6b5a" d="M 0.960938 131.753906 L 0.960938 0.171875 L 40.589844 0.171875 L 40.589844 131.753906 Z M 0.960938 131.753906 " fill-opacity="1" fill-rule="nonzero"/></g></g></g></g><g clip-path="url(#32fcc0d81b)"><g transform="matrix(1, 0, 0, 1, 137, 126)"><g clip-path="url(#8e5195017a)"><g clip-path="url(#6fb371c26f)"><path fill="#9b6b4a" d="M 0.332031 131.753906 L 0.332031 0.171875 L 39.960938 0.171875 L 39.960938 131.753906 Z M 0.332031 131.753906 " fill-opacity="1" fill-rule="nonzero"/></g></g></g></g><g clip-path="url(#61876b2883)"><g transform="matrix(1, 0, 0, 1, 38, 126)"><g clip-path="url(#e185414357)"><g clip-path="url(#90c55e882a)"><path fill="#3d5a80" d="M 0.398438 131.753906 L 0.398438 0.171875 L 40.027344 0.171875 L 40.027344 131.753906 Z M 0.398438 131.753906 " fill-opacity="1" fill-rule="nonzero"/></g></g></g></g></svg>