<svg xmlns="http://www.w3.org/2000/svg" xmlns:xlink="http://www.w3.org/1999/xlink" width="4096" zoomAndPan="magnify" viewBox="0 0 3072 1535.999932" height="2048" preserveAspectRatio="xMidYMid meet" version="1.0"><defs><g/><clipPath id="cc9deb1251"><rect x="0" width="2175" y="0" height="884"/></clipPath><clipPath id="7c27054ec0"><path d="M 351.910156 505.785156 L 510.484375 505.785156 L 510.484375 1032.078125 L 351.910156 1032.078125 Z M 351.910156 505.785156 " clip-rule="nonzero"/></clipPath><clipPath id="53684fa89a"><path d="M 0.910156 0.785156 L 159.484375 0.785156 L 159.484375 527.078125 L 0.910156 527.078125 Z M 0.910156 0.785156 " clip-rule="nonzero"/></clipPath><clipPath id="c70eca3f4c"><rect x="0" width="160" y="0" height="528"/></clipPath><clipPath id="efcf4ca73b"><path d="M 549.457031 505.785156 L 708.027344 505.785156 L 708.027344 1032.078125 L 549.457031 1032.078125 Z M 549.457031 505.785156 " clip-rule="nonzero"/></clipPath><clipPath id="83372af57c"><path d="M 0.457031 0.785156 L 159.027344 0.785156 L 159.027344 527.078125 L 0.457031 527.078125 Z M 0.457031 0.785156 " clip-rule="nonzero"/></clipPath><clipPath id="6d6f04fdd7"><rect x="0" width="160" y="0" height="528"/></clipPath><clipPath id="ee41722144"><path d="M 153.601562 505.785156 L 312.171875 505.785156 L 312.171875 1032.078125 L 153.601562 1032.078125 Z M 153.601562 505.785156 " clip-rule="nonzero"/></clipPath><clipPath id="cd88986b80"><path d="M 0.601562 0.785156 L 159.171875 0.785156 L 159.171875 527.078125 L 0.601562 527.078125 Z M 0.601562 0.785156 " clip-rule="nonzero"/></clipPath><clipPath id="8a4e59102d"><rect x="0" width="160" y="0" height="528"/></clipPath></defs><g transform="matrix(1, 0, 0, 1, 739, 324)"><g clip-path="url(#cc9deb1251)"><g fill="#020202" fill-opacity="1"><g transform="translate(0.973729, 706.454158)"><g><path d="M 56.171875 0 L 56.171875 -529.78125 L 137.25 -529.78125 L 137.25 -305.78125 L 399.65625 -305.78125 L 399.65625 -529.78125 L 480.359375 -529.78125 L 480.359375 0 L 399.65625 0 L 399.65625 -236.09375 L 137.25 -236.09375 L 137.25 0 Z M 56.171875 0 "/></g></g></g><g fill="#020202" fill-opacity="1"><g transform="translate(522.931977, 706.454158)"><g><path d="M 219.375 8.171875 C 180.5 8.171875 147.078125 -0.238281 119.109375 -17.0625 C 91.140625 -33.894531 69.628906 -57.476562 54.578125 -87.8125 C 39.523438 -118.15625 32 -153.597656 32 -194.140625 C 32 -234.191406 39.460938 -269.566406 54.390625 -300.265625 C 69.328125 -330.960938 90.425781 -354.960938 117.6875 -372.265625 C 144.945312 -389.578125 176.710938 -398.234375 212.984375 -398.234375 C 236.679688 -398.234375 259.140625 -394.320312 280.359375 -386.5 C 301.578125 -378.675781 320.421875 -366.644531 336.890625 -350.40625 C 353.367188 -334.164062 366.347656 -313.539062 375.828125 -288.53125 C 385.304688 -263.53125 390.046875 -233.84375 390.046875 -199.46875 L 390.046875 -173.15625 L 73.25 -173.15625 L 73.25 -231.46875 L 349.875 -231.46875 L 314.3125 -212.625 C 314.3125 -236.5625 310.457031 -257.71875 302.75 -276.09375 C 295.050781 -294.46875 283.675781 -308.75 268.625 -318.9375 C 253.570312 -329.132812 235.144531 -334.234375 213.34375 -334.234375 C 191.53125 -334.234375 172.859375 -329.015625 157.328125 -318.578125 C 141.804688 -308.148438 129.894531 -294.285156 121.59375 -276.984375 C 113.300781 -259.679688 109.15625 -240.363281 109.15625 -219.03125 L 109.15625 -180.984375 C 109.15625 -154.671875 113.71875 -132.148438 122.84375 -113.421875 C 131.96875 -94.691406 144.882812 -80.410156 161.59375 -70.578125 C 178.3125 -60.742188 197.8125 -55.828125 220.09375 -55.828125 C 235.019531 -55.828125 248.53125 -58.019531 260.625 -62.40625 C 272.71875 -66.789062 283.03125 -73.25 291.5625 -81.78125 C 300.09375 -90.3125 306.492188 -100.738281 310.765625 -113.0625 L 384 -99.5625 C 378.070312 -78.226562 367.523438 -59.441406 352.359375 -43.203125 C 337.191406 -26.960938 318.285156 -14.335938 295.640625 -5.328125 C 273.003906 3.671875 247.582031 8.171875 219.375 8.171875 Z M 219.375 8.171875 "/></g></g></g><g fill="#020202" fill-opacity="1"><g transform="translate(928.981497, 706.454158)"><g><path d="M 128 -231.109375 L 128 0 L 50.140625 0 L 50.140625 -392.53125 L 124.796875 -392.53125 L 125.15625 -296.1875 L 115.203125 -296.1875 C 126.816406 -331.257812 143.644531 -357.035156 165.6875 -373.515625 C 187.738281 -389.992188 214.40625 -398.234375 245.6875 -398.234375 C 272.476562 -398.234375 296.003906 -392.539062 316.265625 -381.15625 C 336.535156 -369.78125 352.359375 -353.007812 363.734375 -330.84375 C 375.117188 -308.6875 380.8125 -281.25 380.8125 -248.53125 L 380.8125 0 L 303.296875 0 L 303.296875 -238.9375 C 303.296875 -267.851562 295.882812 -290.3125 281.0625 -306.3125 C 266.25 -322.3125 245.925781 -330.3125 220.09375 -330.3125 C 202.550781 -330.3125 186.785156 -326.519531 172.796875 -318.9375 C 158.816406 -311.351562 147.851562 -300.210938 139.90625 -285.515625 C 131.96875 -270.816406 128 -252.679688 128 -231.109375 Z M 128 -231.109375 "/></g></g></g><g fill="#020202" fill-opacity="1"><g transform="translate(1345.69741, 706.454158)"><g><path d="M 50.140625 0 L 50.140625 -392.53125 L 125.15625 -392.53125 L 125.15625 -329.609375 L 128.71875 -329.609375 C 136.0625 -350.941406 148.441406 -367.648438 165.859375 -379.734375 C 183.285156 -391.828125 203.734375 -397.875 227.203125 -397.875 C 232.421875 -397.875 238.050781 -397.695312 244.09375 -397.34375 C 250.132812 -396.988281 255.171875 -396.570312 259.203125 -396.09375 L 259.203125 -322.5 C 256.359375 -323.207031 250.960938 -324.035156 243.015625 -324.984375 C 235.078125 -325.929688 226.84375 -326.40625 218.3125 -326.40625 C 201.25 -326.40625 185.84375 -322.726562 172.09375 -315.375 C 158.34375 -308.03125 147.554688 -297.660156 139.734375 -284.265625 C 131.910156 -270.878906 128 -255.175781 128 -237.15625 L 128 0 Z M 50.140625 0 "/></g></g></g><g fill="#020202" fill-opacity="1"><g transform="translate(1609.883435, 706.454158)"><g><path d="M 50.140625 0 L 50.140625 -392.53125 L 128 -392.53125 L 128 0 Z M 89.25 -454.046875 C 75.726562 -454.046875 64.226562 -458.609375 54.75 -467.734375 C 45.269531 -476.859375 40.53125 -487.820312 40.53125 -500.625 C 40.53125 -513.664062 45.269531 -524.628906 54.75 -533.515625 C 64.226562 -542.410156 75.726562 -546.859375 89.25 -546.859375 C 102.757812 -546.859375 114.253906 -542.410156 123.734375 -533.515625 C 133.210938 -524.628906 137.953125 -513.664062 137.953125 -500.625 C 137.953125 -487.820312 133.210938 -476.859375 123.734375 -467.734375 C 114.253906 -458.609375 102.757812 -454.046875 89.25 -454.046875 Z M 89.25 -454.046875 "/></g></g></g><g fill="#020202" fill-opacity="1"><g transform="translate(1773.449054, 706.454158)"><g><path d="M 215.828125 8.171875 C 179.085938 8.171875 146.910156 -0.300781 119.296875 -17.25 C 91.679688 -34.195312 70.226562 -57.898438 54.9375 -88.359375 C 39.644531 -118.816406 32 -154.191406 32 -194.484375 C 32 -235.253906 39.644531 -270.925781 54.9375 -301.5 C 70.226562 -332.082031 91.679688 -355.847656 119.296875 -372.796875 C 146.910156 -389.753906 179.085938 -398.234375 215.828125 -398.234375 C 236.921875 -398.234375 256.59375 -395.445312 274.84375 -389.875 C 293.09375 -384.300781 309.503906 -376.238281 324.078125 -365.6875 C 338.660156 -355.144531 350.867188 -342.347656 360.703125 -327.296875 C 370.546875 -312.242188 377.601562 -295.351562 381.875 -276.625 L 307.5625 -262.765625 C 305.1875 -273.191406 301.332031 -282.671875 296 -291.203125 C 290.664062 -299.734375 284.144531 -307.082031 276.4375 -313.25 C 268.738281 -319.414062 259.851562 -324.15625 249.78125 -327.46875 C 239.707031 -330.789062 228.625 -332.453125 216.53125 -332.453125 C 193.0625 -332.453125 173.503906 -326.347656 157.859375 -314.140625 C 142.222656 -301.929688 130.492188 -285.457031 122.671875 -264.71875 C 114.847656 -243.976562 110.9375 -220.566406 110.9375 -194.484375 C 110.9375 -168.890625 114.847656 -145.78125 122.671875 -125.15625 C 130.492188 -104.53125 142.164062 -88.113281 157.6875 -75.90625 C 173.21875 -63.695312 192.832031 -57.59375 216.53125 -57.59375 C 228.863281 -57.59375 240.125 -59.3125 250.3125 -62.75 C 260.507812 -66.1875 269.457031 -71.046875 277.15625 -77.328125 C 284.863281 -83.609375 291.382812 -91.191406 296.71875 -100.078125 C 302.050781 -108.972656 306.019531 -118.753906 308.625 -129.421875 L 382.578125 -115.90625 C 378.546875 -96.707031 371.550781 -79.519531 361.59375 -64.34375 C 351.644531 -49.175781 339.378906 -36.140625 324.796875 -25.234375 C 310.222656 -14.335938 293.75 -6.046875 275.375 -0.359375 C 257.007812 5.328125 237.160156 8.171875 215.828125 8.171875 Z M 215.828125 8.171875 "/></g></g></g></g></g><g clip-path="url(#7c27054ec0)"><g transform="matrix(1, 0, 0, 1, 351, 505)"><g clip-path="url(#c70eca3f4c)"><g clip-path="url(#53684fa89a)"><path fill="#000000" d="M 0.910156 527.078125 L 0.910156 0.570312 L 159.484375 0.570312 L 159.484375 527.078125 Z M 0.910156 527.078125 " fill-opacity="1" fill-rule="nonzero"/></g></g></g></g><g clip-path="url(#efcf4ca73b)"><g transform="matrix(1, 0, 0, 1, 549, 505)"><g clip-path="url(#6d6f04fdd7)"><g clip-path="url(#83372af57c)"><path fill="#000000" d="M 0.457031 527.078125 L 0.457031 0.570312 L 159.027344 0.570312 L 159.027344 527.078125 Z M 0.457031 527.078125 " fill-opacity="1" fill-rule="nonzero"/></g></g></g></g><g clip-path="url(#ee41722144)"><g transform="matrix(1, 0, 0, 1, 153, 505)"><g clip-path="url(#8a4e59102d)"><g clip-path="url(#cd88986b80)"><path fill="#000000" d="M 0.601562 527.078125 L 0.601562 0.570312 L 159.171875 0.570312 L 159.171875 527.078125 Z M 0.601562 527.078125 " fill-opacity="1" fill-rule="nonzero"/></g></g></g></g></svg>