<svg xmlns="http://www.w3.org/2000/svg" xmlns:xlink="http://www.w3.org/1999/xlink" width="1024" zoomAndPan="magnify" viewBox="0 0 768 383.999986" height="512" preserveAspectRatio="xMidYMid meet" version="1.0"><defs><g/><clipPath id="7d807b871f"><rect x="0" width="545" y="0" height="223"/></clipPath><clipPath id="c7e702749d"><path d="M 87.980469 126.4375 L 127.621094 126.4375 L 127.621094 258.011719 L 87.980469 258.011719 Z M 87.980469 126.4375 " clip-rule="nonzero"/></clipPath><clipPath id="19c709ee66"><path d="M 0.980469 0.4375 L 40.621094 0.4375 L 40.621094 132.011719 L 0.980469 132.011719 Z M 0.980469 0.4375 " clip-rule="nonzero"/></clipPath><clipPath id="fa8963a696"><rect x="0" width="41" y="0" height="133"/></clipPath><clipPath id="a76669f462"><path d="M 137.367188 126.4375 L 177.007812 126.4375 L 177.007812 258.011719 L 137.367188 258.011719 Z M 137.367188 126.4375 " clip-rule="nonzero"/></clipPath><clipPath id="7efba2d295"><path d="M 0.367188 0.4375 L 40.007812 0.4375 L 40.007812 132.011719 L 0.367188 132.011719 Z M 0.367188 0.4375 " clip-rule="nonzero"/></clipPath><clipPath id="1c31d998d9"><rect x="0" width="41" y="0" height="133"/></clipPath><clipPath id="9908b4b054"><path d="M 38.402344 126.4375 L 78.042969 126.4375 L 78.042969 258.011719 L 38.402344 258.011719 Z M 38.402344 126.4375 " clip-rule="nonzero"/></clipPath><clipPath id="8584519c84"><path d="M 0.402344 0.4375 L 40.042969 0.4375 L 40.042969 132.011719 L 0.402344 132.011719 Z M 0.402344 0.4375 " clip-rule="nonzero"/></clipPath><clipPath id="f9c187e773"><rect x="0" width="41" y="0" height="133"/></clipPath></defs><g transform="matrix(1, 0, 0, 1, 184, 80)"><g clip-path="url(#7d807b871f)"><g fill="#020202" fill-opacity="1"><g transform="translate(0.993431, 177.613544)"><g><path d="M 14.046875 0 L 14.046875 -132.453125 L 34.3125 -132.453125 L 34.3125 -76.453125 L 99.90625 -76.453125 L 99.90625 -132.453125 L 120.09375 -132.453125 L 120.09375 0 L 99.90625 0 L 99.90625 -59.015625 L 34.3125 -59.015625 L 34.3125 0 Z M 14.046875 0 "/></g></g></g><g fill="#020202" fill-opacity="1"><g transform="translate(131.482993, 177.613544)"><g><path d="M 54.84375 2.046875 C 45.125 2.046875 36.769531 -0.0546875 29.78125 -4.265625 C 22.789062 -8.472656 17.410156 -14.367188 13.640625 -21.953125 C 9.878906 -29.535156 8 -38.394531 8 -48.53125 C 8 -58.550781 9.863281 -67.394531 13.59375 -75.0625 C 17.332031 -82.738281 22.609375 -88.738281 29.421875 -93.0625 C 36.234375 -97.394531 44.175781 -99.5625 53.25 -99.5625 C 59.175781 -99.5625 64.789062 -98.582031 70.09375 -96.625 C 75.394531 -94.664062 80.101562 -91.65625 84.21875 -87.59375 C 88.34375 -83.539062 91.585938 -78.382812 93.953125 -72.125 C 96.328125 -65.875 97.515625 -58.457031 97.515625 -49.875 L 97.515625 -43.296875 L 18.3125 -43.296875 L 18.3125 -57.875 L 87.46875 -57.875 L 78.578125 -53.15625 C 78.578125 -59.144531 77.613281 -64.429688 75.6875 -69.015625 C 73.757812 -73.609375 70.914062 -77.179688 67.15625 -79.734375 C 63.394531 -82.285156 58.785156 -83.5625 53.328125 -83.5625 C 47.878906 -83.5625 43.210938 -82.253906 39.328125 -79.640625 C 35.453125 -77.035156 32.476562 -73.566406 30.40625 -69.234375 C 28.332031 -64.910156 27.296875 -60.082031 27.296875 -54.75 L 27.296875 -45.25 C 27.296875 -38.664062 28.4375 -33.03125 30.71875 -28.34375 C 33 -23.664062 36.226562 -20.097656 40.40625 -17.640625 C 44.582031 -15.179688 49.453125 -13.953125 55.015625 -13.953125 C 58.753906 -13.953125 62.132812 -14.5 65.15625 -15.59375 C 68.175781 -16.695312 70.753906 -18.3125 72.890625 -20.4375 C 75.023438 -22.570312 76.625 -25.179688 77.6875 -28.265625 L 96 -24.890625 C 94.519531 -19.554688 91.882812 -14.859375 88.09375 -10.796875 C 84.300781 -6.742188 79.570312 -3.585938 73.90625 -1.328125 C 68.25 0.921875 61.894531 2.046875 54.84375 2.046875 Z M 54.84375 2.046875 "/></g></g></g><g fill="#020202" fill-opacity="1"><g transform="translate(232.995373, 177.613544)"><g><path d="M 32 -57.78125 L 32 0 L 12.53125 0 L 12.53125 -98.140625 L 31.203125 -98.140625 L 31.296875 -74.046875 L 28.796875 -74.046875 C 31.703125 -82.816406 35.910156 -89.257812 41.421875 -93.375 C 46.929688 -97.5 53.597656 -99.5625 61.421875 -99.5625 C 68.117188 -99.5625 74 -98.140625 79.0625 -95.296875 C 84.132812 -92.453125 88.09375 -88.257812 90.9375 -82.71875 C 93.78125 -77.175781 95.203125 -70.316406 95.203125 -62.140625 L 95.203125 0 L 75.828125 0 L 75.828125 -59.734375 C 75.828125 -66.960938 73.972656 -72.578125 70.265625 -76.578125 C 66.566406 -80.578125 61.484375 -82.578125 55.015625 -82.578125 C 50.628906 -82.578125 46.6875 -81.628906 43.1875 -79.734375 C 39.695312 -77.835938 36.957031 -75.050781 34.96875 -71.375 C 32.988281 -67.707031 32 -63.175781 32 -57.78125 Z M 32 -57.78125 "/></g></g></g><g fill="#020202" fill-opacity="1"><g transform="translate(337.174351, 177.613544)"><g><path d="M 12.53125 0 L 12.53125 -98.140625 L 31.296875 -98.140625 L 31.296875 -82.40625 L 32.171875 -82.40625 C 34.015625 -87.738281 37.113281 -91.914062 41.46875 -94.9375 C 45.820312 -97.957031 50.929688 -99.46875 56.796875 -99.46875 C 58.097656 -99.46875 59.503906 -99.421875 61.015625 -99.328125 C 62.535156 -99.242188 63.796875 -99.144531 64.796875 -99.03125 L 64.796875 -80.625 C 64.085938 -80.800781 62.738281 -81.003906 60.75 -81.234375 C 58.769531 -81.472656 56.710938 -81.59375 54.578125 -81.59375 C 50.304688 -81.59375 46.453125 -80.675781 43.015625 -78.84375 C 39.578125 -77.007812 36.878906 -74.414062 34.921875 -71.0625 C 32.972656 -67.71875 32 -63.796875 32 -59.296875 L 32 0 Z M 12.53125 0 "/></g></g></g><g fill="#020202" fill-opacity="1"><g transform="translate(403.220857, 177.613544)"><g><path d="M 12.53125 0 L 12.53125 -98.140625 L 32 -98.140625 L 32 0 Z M 22.3125 -113.515625 C 18.9375 -113.515625 16.0625 -114.65625 13.6875 -116.9375 C 11.320312 -119.21875 10.140625 -121.957031 10.140625 -125.15625 C 10.140625 -128.414062 11.320312 -131.15625 13.6875 -133.375 C 16.0625 -135.601562 18.9375 -136.71875 22.3125 -136.71875 C 25.695312 -136.71875 28.570312 -135.601562 30.9375 -133.375 C 33.3125 -131.15625 34.5 -128.414062 34.5 -125.15625 C 34.5 -121.957031 33.3125 -119.21875 30.9375 -116.9375 C 28.570312 -114.65625 25.695312 -113.515625 22.3125 -113.515625 Z M 22.3125 -113.515625 "/></g></g></g><g fill="#020202" fill-opacity="1"><g transform="translate(444.112262, 177.613544)"><g><path d="M 53.953125 2.046875 C 44.765625 2.046875 36.71875 -0.0703125 29.8125 -4.3125 C 22.914062 -8.550781 17.554688 -14.476562 13.734375 -22.09375 C 9.910156 -29.707031 8 -38.550781 8 -48.625 C 8 -58.8125 9.910156 -67.726562 13.734375 -75.375 C 17.554688 -83.019531 22.914062 -88.960938 29.8125 -93.203125 C 36.71875 -97.441406 44.765625 -99.5625 53.953125 -99.5625 C 59.234375 -99.5625 64.15625 -98.863281 68.71875 -97.46875 C 73.28125 -96.070312 77.378906 -94.054688 81.015625 -91.421875 C 84.660156 -88.785156 87.710938 -85.582031 90.171875 -81.8125 C 92.640625 -78.050781 94.40625 -73.832031 95.46875 -69.15625 L 76.890625 -65.6875 C 76.296875 -68.289062 75.332031 -70.660156 74 -72.796875 C 72.664062 -74.929688 71.035156 -76.769531 69.109375 -78.3125 C 67.179688 -79.851562 64.957031 -81.035156 62.4375 -81.859375 C 59.925781 -82.691406 57.160156 -83.109375 54.140625 -83.109375 C 48.265625 -83.109375 43.367188 -81.582031 39.453125 -78.53125 C 35.546875 -75.476562 32.613281 -71.359375 30.65625 -66.171875 C 28.707031 -60.992188 27.734375 -55.144531 27.734375 -48.625 C 27.734375 -42.21875 28.707031 -36.4375 30.65625 -31.28125 C 32.613281 -26.132812 35.535156 -22.035156 39.421875 -18.984375 C 43.304688 -15.929688 48.210938 -14.40625 54.140625 -14.40625 C 57.210938 -14.40625 60.023438 -14.832031 62.578125 -15.6875 C 65.128906 -16.550781 67.363281 -17.765625 69.28125 -19.328125 C 71.207031 -20.898438 72.835938 -22.796875 74.171875 -25.015625 C 75.503906 -27.242188 76.5 -29.691406 77.15625 -32.359375 L 95.640625 -28.984375 C 94.640625 -24.179688 92.894531 -19.882812 90.40625 -16.09375 C 87.914062 -12.300781 84.847656 -9.039062 81.203125 -6.3125 C 77.554688 -3.582031 73.4375 -1.503906 68.84375 -0.078125 C 64.25 1.335938 59.285156 2.046875 53.953125 2.046875 Z M 53.953125 2.046875 "/></g></g></g></g></g><g clip-path="url(#c7e702749d)"><g transform="matrix(1, 0, 0, 1, 87, 126)"><g clip-path="url(#fa8963a696)"><g clip-path="url(#19c709ee66)"><path fill="#000000" d="M 0.980469 132.011719 L 0.980469 0.386719 L 40.621094 0.386719 L 40.621094 132.011719 Z M 0.980469 132.011719 " fill-opacity="1" fill-rule="nonzero"/></g></g></g></g><g clip-path="url(#a76669f462)"><g transform="matrix(1, 0, 0, 1, 137, 126)"><g clip-path="url(#1c31d998d9)"><g clip-path="url(#7efba2d295)"><path fill="#000000" d="M 0.367188 132.011719 L 0.367188 0.386719 L 40.007812 0.386719 L 40.007812 132.011719 Z M 0.367188 132.011719 " fill-opacity="1" fill-rule="nonzero"/></g></g></g></g><g clip-path="url(#9908b4b054)"><g transform="matrix(1, 0, 0, 1, 38, 126)"><g clip-path="url(#f9c187e773)"><g clip-path="url(#8584519c84)"><path fill="#000000" d="M 0.402344 132.011719 L 0.402344 0.386719 L 40.042969 0.386719 L 40.042969 132.011719 Z M 0.402344 132.011719 " fill-opacity="1" fill-rule="nonzero"/></g></g></g></g></svg>