<svg xmlns="http://www.w3.org/2000/svg" xmlns:xlink="http://www.w3.org/1999/xlink" width="2048" zoomAndPan="magnify" viewBox="0 0 1536 767.999994" height="1024" preserveAspectRatio="xMidYMid meet" version="1.0"><defs><g/><clipPath id="4c9b654345"><rect x="0" width="1089" y="0" height="443"/></clipPath><clipPath id="5f42d58059"><path d="M 175.957031 252.890625 L 255.246094 252.890625 L 255.246094 516.035156 L 175.957031 516.035156 Z M 175.957031 252.890625 " clip-rule="nonzero"/></clipPath><clipPath id="39d9eec69a"><path d="M 0.957031 0.890625 L 80.246094 0.890625 L 80.246094 264.035156 L 0.957031 264.035156 Z M 0.957031 0.890625 " clip-rule="nonzero"/></clipPath><clipPath id="4473551da0"><rect x="0" width="81" y="0" height="265"/></clipPath><clipPath id="f065d5e5aa"><path d="M 274.730469 252.890625 L 354.015625 252.890625 L 354.015625 516.035156 L 274.730469 516.035156 Z M 274.730469 252.890625 " clip-rule="nonzero"/></clipPath><clipPath id="17e91d2dde"><path d="M 0.730469 0.890625 L 80.015625 0.890625 L 80.015625 264.035156 L 0.730469 264.035156 Z M 0.730469 0.890625 " clip-rule="nonzero"/></clipPath><clipPath id="dbc9e35111"><rect x="0" width="81" y="0" height="265"/></clipPath><clipPath id="eca86129d3"><path d="M 76.804688 252.890625 L 156.089844 252.890625 L 156.089844 516.035156 L 76.804688 516.035156 Z M 76.804688 252.890625 " clip-rule="nonzero"/></clipPath><clipPath id="1c142b829d"><path d="M 0.804688 0.890625 L 80.089844 0.890625 L 80.089844 264.035156 L 0.804688 264.035156 Z M 0.804688 0.890625 " clip-rule="nonzero"/></clipPath><clipPath id="7205aa35bb"><rect x="0" width="81" y="0" height="265"/></clipPath></defs><rect x="-153.6" width="1843.2" fill="#ffffff" y="-76.799999" height="921.599993" fill-opacity="1"/><rect x="-153.6" width="1843.2" fill="#000000" y="-76.799999" height="921.599993" fill-opacity="1"/><g transform="matrix(1, 0, 0, 1, 369, 162)"><g clip-path="url(#4c9b654345)"><g fill="#ffffff" fill-opacity="1"><g transform="translate(0.98685, 353.227125)"><g><path d="M 28.09375 0 L 28.09375 -264.890625 L 68.625 -264.890625 L 68.625 -152.890625 L 199.828125 -152.890625 L 199.828125 -264.890625 L 240.1875 -264.890625 L 240.1875 0 L 199.828125 0 L 199.828125 -118.046875 L 68.625 -118.046875 L 68.625 0 Z M 28.09375 0 "/></g></g></g><g fill="#ffffff" fill-opacity="1"><g transform="translate(261.965982, 353.227125)"><g><path d="M 109.6875 4.09375 C 90.25 4.09375 73.535156 -0.113281 59.546875 -8.53125 C 45.566406 -16.945312 34.8125 -28.738281 27.28125 -43.90625 C 19.757812 -59.082031 16 -76.800781 16 -97.0625 C 16 -117.09375 19.734375 -134.78125 27.203125 -150.125 C 34.671875 -165.476562 45.21875 -177.476562 58.84375 -186.125 C 72.476562 -194.78125 88.359375 -199.109375 106.484375 -199.109375 C 118.335938 -199.109375 129.566406 -197.148438 140.171875 -193.234375 C 150.785156 -189.328125 160.207031 -183.316406 168.4375 -175.203125 C 176.675781 -167.085938 183.164062 -156.773438 187.90625 -144.265625 C 192.65625 -131.765625 195.03125 -116.921875 195.03125 -99.734375 L 195.03125 -86.578125 L 36.625 -86.578125 L 36.625 -115.734375 L 174.9375 -115.734375 L 157.15625 -106.3125 C 157.15625 -118.28125 155.226562 -128.859375 151.375 -138.046875 C 147.53125 -147.234375 141.84375 -154.375 134.3125 -159.46875 C 126.789062 -164.5625 117.578125 -167.109375 106.671875 -167.109375 C 95.765625 -167.109375 86.425781 -164.5 78.65625 -159.28125 C 70.894531 -154.070312 64.941406 -147.140625 60.796875 -138.484375 C 56.648438 -129.835938 54.578125 -120.179688 54.578125 -109.515625 L 54.578125 -90.484375 C 54.578125 -77.328125 56.859375 -66.066406 61.421875 -56.703125 C 65.984375 -47.347656 72.441406 -40.207031 80.796875 -35.28125 C 89.148438 -30.363281 98.898438 -27.90625 110.046875 -27.90625 C 117.515625 -27.90625 124.269531 -29 130.3125 -31.1875 C 136.351562 -33.382812 141.507812 -36.617188 145.78125 -40.890625 C 150.050781 -45.160156 153.25 -50.375 155.375 -56.53125 L 192 -49.78125 C 189.039062 -39.113281 183.765625 -29.71875 176.171875 -21.59375 C 168.585938 -13.476562 159.132812 -7.164062 147.8125 -2.65625 C 136.5 1.84375 123.789062 4.09375 109.6875 4.09375 Z M 109.6875 4.09375 "/></g></g></g><g fill="#ffffff" fill-opacity="1"><g transform="translate(464.990748, 353.227125)"><g><path d="M 64 -115.5625 L 64 0 L 25.0625 0 L 25.0625 -196.265625 L 62.40625 -196.265625 L 62.578125 -148.09375 L 57.59375 -148.09375 C 63.40625 -165.632812 71.820312 -178.519531 82.84375 -186.75 C 93.863281 -194.988281 107.195312 -199.109375 122.84375 -199.109375 C 136.238281 -199.109375 148 -196.265625 158.125 -190.578125 C 168.257812 -184.890625 176.171875 -176.503906 181.859375 -165.421875 C 187.554688 -154.335938 190.40625 -140.617188 190.40625 -124.265625 L 190.40625 0 L 151.640625 0 L 151.640625 -119.46875 C 151.640625 -133.925781 147.9375 -145.15625 140.53125 -153.15625 C 133.125 -161.15625 122.960938 -165.15625 110.046875 -165.15625 C 101.273438 -165.15625 93.390625 -163.257812 86.390625 -159.46875 C 79.398438 -155.675781 73.921875 -150.101562 69.953125 -142.75 C 65.984375 -135.40625 64 -126.34375 64 -115.5625 Z M 64 -115.5625 "/></g></g></g><g fill="#ffffff" fill-opacity="1"><g transform="translate(673.348711, 353.227125)"><g><path d="M 25.0625 0 L 25.0625 -196.265625 L 62.578125 -196.265625 L 62.578125 -164.796875 L 64.359375 -164.796875 C 68.035156 -175.460938 74.226562 -183.816406 82.9375 -189.859375 C 91.644531 -195.910156 101.863281 -198.9375 113.59375 -198.9375 C 116.207031 -198.9375 119.023438 -198.847656 122.046875 -198.671875 C 125.066406 -198.492188 127.585938 -198.285156 129.609375 -198.046875 L 129.609375 -161.25 C 128.179688 -161.601562 125.484375 -162.015625 121.515625 -162.484375 C 117.546875 -162.960938 113.425781 -163.203125 109.15625 -163.203125 C 100.625 -163.203125 92.921875 -161.363281 86.046875 -157.6875 C 79.171875 -154.019531 73.773438 -148.835938 69.859375 -142.140625 C 65.953125 -135.441406 64 -127.585938 64 -118.578125 L 64 0 Z M 25.0625 0 "/></g></g></g><g fill="#ffffff" fill-opacity="1"><g transform="translate(805.441727, 353.227125)"><g><path d="M 25.0625 0 L 25.0625 -196.265625 L 64 -196.265625 L 64 0 Z M 44.625 -227.03125 C 37.863281 -227.03125 32.113281 -229.3125 27.375 -233.875 C 22.632812 -238.4375 20.265625 -243.914062 20.265625 -250.3125 C 20.265625 -256.832031 22.632812 -262.3125 27.375 -266.75 C 32.113281 -271.195312 37.863281 -273.421875 44.625 -273.421875 C 51.375 -273.421875 57.117188 -271.195312 61.859375 -266.75 C 66.609375 -262.3125 68.984375 -256.832031 68.984375 -250.3125 C 68.984375 -243.914062 66.609375 -238.4375 61.859375 -233.875 C 57.117188 -229.3125 51.375 -227.03125 44.625 -227.03125 Z M 44.625 -227.03125 "/></g></g></g><g fill="#ffffff" fill-opacity="1"><g transform="translate(887.224539, 353.227125)"><g><path d="M 107.90625 4.09375 C 89.539062 4.09375 73.453125 -0.140625 59.640625 -8.609375 C 45.835938 -17.085938 35.113281 -28.941406 27.46875 -44.171875 C 19.820312 -59.398438 16 -77.09375 16 -97.25 C 16 -117.632812 19.820312 -135.46875 27.46875 -150.75 C 35.113281 -166.039062 45.835938 -177.921875 59.640625 -186.390625 C 73.453125 -194.867188 89.539062 -199.109375 107.90625 -199.109375 C 118.457031 -199.109375 128.296875 -197.71875 137.421875 -194.9375 C 146.546875 -192.15625 154.753906 -188.125 162.046875 -182.84375 C 169.335938 -177.570312 175.441406 -171.171875 180.359375 -163.640625 C 185.273438 -156.117188 188.800781 -147.675781 190.9375 -138.3125 L 153.78125 -131.375 C 152.59375 -136.59375 150.664062 -141.332031 148 -145.59375 C 145.332031 -149.863281 142.070312 -153.539062 138.21875 -156.625 C 134.375 -159.707031 129.929688 -162.078125 124.890625 -163.734375 C 119.847656 -165.390625 114.304688 -166.21875 108.265625 -166.21875 C 96.535156 -166.21875 86.757812 -163.164062 78.9375 -157.0625 C 71.113281 -150.957031 65.242188 -142.71875 61.328125 -132.34375 C 57.421875 -121.976562 55.46875 -110.28125 55.46875 -97.25 C 55.46875 -84.445312 57.421875 -72.890625 61.328125 -62.578125 C 65.242188 -52.265625 71.082031 -44.054688 78.84375 -37.953125 C 86.601562 -31.847656 96.410156 -28.796875 108.265625 -28.796875 C 114.429688 -28.796875 120.0625 -29.65625 125.15625 -31.375 C 130.25 -33.09375 134.722656 -35.519531 138.578125 -38.65625 C 142.429688 -41.800781 145.691406 -45.597656 148.359375 -50.046875 C 151.023438 -54.492188 153.007812 -59.382812 154.3125 -64.71875 L 191.296875 -57.953125 C 189.273438 -48.359375 185.773438 -39.765625 180.796875 -32.171875 C 175.816406 -24.585938 169.679688 -18.066406 162.390625 -12.609375 C 155.109375 -7.160156 146.875 -3.015625 137.6875 -0.171875 C 128.5 2.671875 118.570312 4.09375 107.90625 4.09375 Z M 107.90625 4.09375 "/></g></g></g></g></g><g clip-path="url(#5f42d58059)"><g transform="matrix(1, 0, 0, 1, 175, 252)"><g clip-path="url(#4473551da0)"><g clip-path="url(#39d9eec69a)"><path fill="#ffffff" d="M 0.957031 264.035156 L 0.957031 0.78125 L 80.246094 0.78125 L 80.246094 264.035156 Z M 0.957031 264.035156 " fill-opacity="1" fill-rule="nonzero"/></g></g></g></g><g clip-path="url(#f065d5e5aa)"><g transform="matrix(1, 0, 0, 1, 274, 252)"><g clip-path="url(#dbc9e35111)"><g clip-path="url(#17e91d2dde)"><path fill="#ffffff" d="M 0.730469 264.035156 L 0.730469 0.78125 L 80.015625 0.78125 L 80.015625 264.035156 Z M 0.730469 264.035156 " fill-opacity="1" fill-rule="nonzero"/></g></g></g></g><g clip-path="url(#eca86129d3)"><g transform="matrix(1, 0, 0, 1, 76, 252)"><g clip-path="url(#7205aa35bb)"><g clip-path="url(#1c142b829d)"><path fill="#ffffff" d="M 0.804688 264.035156 L 0.804688 0.78125 L 80.089844 0.78125 L 80.089844 264.035156 Z M 0.804688 264.035156 " fill-opacity="1" fill-rule="nonzero"/></g></g></g></g></svg>