<svg xmlns="http://www.w3.org/2000/svg" xmlns:xlink="http://www.w3.org/1999/xlink" width="1024" zoomAndPan="magnify" viewBox="0 0 768 767.999994" height="1024" preserveAspectRatio="xMidYMid meet" version="1.0"><defs><clipPath id="841db3a236"><path d="M 291.371094 76.355469 L 476.625 76.355469 L 476.625 691.195312 L 291.371094 691.195312 Z M 291.371094 76.355469 " clip-rule="nonzero"/></clipPath><clipPath id="75b3e6617c"><path d="M 0.371094 0.355469 L 185.625 0.355469 L 185.625 615.195312 L 0.371094 615.195312 Z M 0.371094 0.355469 " clip-rule="nonzero"/></clipPath><clipPath id="44da4a4b40"><rect x="0" width="186" y="0" height="616"/></clipPath><clipPath id="6f8c1f5bf3"><path d="M 505.945312 76.355469 L 691.199219 76.355469 L 691.199219 691.195312 L 505.945312 691.195312 Z M 505.945312 76.355469 " clip-rule="nonzero"/></clipPath><clipPath id="fceb45128d"><path d="M 0.945312 0.355469 L 186.199219 0.355469 L 186.199219 615.195312 L 0.945312 615.195312 Z M 0.945312 0.355469 " clip-rule="nonzero"/></clipPath><clipPath id="53a5b431e0"><rect x="0" width="187" y="0" height="616"/></clipPath><clipPath id="6429cb3777"><path d="M 76.796875 76.355469 L 262.046875 76.355469 L 262.046875 691.195312 L 76.796875 691.195312 Z M 76.796875 76.355469 " clip-rule="nonzero"/></clipPath><clipPath id="ec915fa71b"><path d="M 0.796875 0.355469 L 186.046875 0.355469 L 186.046875 615.195312 L 0.796875 615.195312 Z M 0.796875 0.355469 " clip-rule="nonzero"/></clipPath><clipPath id="607432ef09"><rect x="0" width="187" y="0" height="616"/></clipPath></defs><g clip-path="url(#841db3a236)"><g transform="matrix(1, 0, 0, 1, 291, 76)"><g clip-path="url(#44da4a4b40)"><g clip-path="url(#75b3e6617c)"><path fill="#4a6b5a" d="M 0.371094 615.195312 L 0.371094 0.105469 L 185.625 0.105469 L 185.625 615.195312 Z M 0.371094 615.195312 " fill-opacity="1" fill-rule="nonzero"/></g></g></g></g><g clip-path="url(#6f8c1f5bf3)"><g transform="matrix(1, 0, 0, 1, 505, 76)"><g clip-path="url(#53a5b431e0)"><g clip-path="url(#fceb45128d)"><path fill="#9b6b4a" d="M 0.945312 615.195312 L 0.945312 0.105469 L 186.199219 0.105469 L 186.199219 615.195312 Z M 0.945312 615.195312 " fill-opacity="1" fill-rule="nonzero"/></g></g></g></g><g clip-path="url(#6429cb3777)"><g transform="matrix(1, 0, 0, 1, 76, 76)"><g clip-path="url(#607432ef09)"><g clip-path="url(#ec915fa71b)"><path fill="#3d5a80" d="M 0.796875 615.195312 L 0.796875 0.105469 L 186.046875 0.105469 L 186.046875 615.195312 Z M 0.796875 615.195312 " fill-opacity="1" fill-rule="nonzero"/></g></g></g></g></svg>