<svg xmlns="http://www.w3.org/2000/svg" xmlns:xlink="http://www.w3.org/1999/xlink" width="512" zoomAndPan="magnify" viewBox="0 0 384 383.999986" height="512" preserveAspectRatio="xMidYMid meet" version="1.0"><defs><clipPath id="363322dcda"><path d="M 145.609375 38.394531 L 238.167969 38.394531 L 238.167969 345.59375 L 145.609375 345.59375 Z M 145.609375 38.394531 " clip-rule="nonzero"/></clipPath><clipPath id="6a99bb3367"><path d="M 0.609375 0.394531 L 93.167969 0.394531 L 93.167969 307.59375 L 0.609375 307.59375 Z M 0.609375 0.394531 " clip-rule="nonzero"/></clipPath><clipPath id="5e7b700d8c"><rect x="0" width="94" y="0" height="308"/></clipPath><clipPath id="01eb0ca739"><path d="M 252.820312 38.394531 L 345.378906 38.394531 L 345.378906 345.59375 L 252.820312 345.59375 Z M 252.820312 38.394531 " clip-rule="nonzero"/></clipPath><clipPath id="6bd4ee6058"><path d="M 0.820312 0.394531 L 93.378906 0.394531 L 93.378906 307.59375 L 0.820312 307.59375 Z M 0.820312 0.394531 " clip-rule="nonzero"/></clipPath><clipPath id="fc8fc678a8"><rect x="0" width="94" y="0" height="308"/></clipPath><clipPath id="1795ed43c9"><path d="M 38.398438 38.394531 L 130.957031 38.394531 L 130.957031 345.59375 L 38.398438 345.59375 Z M 38.398438 38.394531 " clip-rule="nonzero"/></clipPath><clipPath id="183f415248"><path d="M 0.398438 0.394531 L 92.957031 0.394531 L 92.957031 307.59375 L 0.398438 307.59375 Z M 0.398438 0.394531 " clip-rule="nonzero"/></clipPath><clipPath id="cba112daf6"><rect x="0" width="93" y="0" height="308"/></clipPath></defs><g clip-path="url(#363322dcda)"><g transform="matrix(1, 0, 0, 1, 145, 38)"><g clip-path="url(#5e7b700d8c)"><g clip-path="url(#6a99bb3367)"><path fill="#4a6b5a" d="M 0.609375 307.59375 L 0.609375 0.269531 L 93.167969 0.269531 L 93.167969 307.59375 Z M 0.609375 307.59375 " fill-opacity="1" fill-rule="nonzero"/></g></g></g></g><g clip-path="url(#01eb0ca739)"><g transform="matrix(1, 0, 0, 1, 252, 38)"><g clip-path="url(#fc8fc678a8)"><g clip-path="url(#6bd4ee6058)"><path fill="#9b6b4a" d="M 0.820312 307.59375 L 0.820312 0.269531 L 93.378906 0.269531 L 93.378906 307.59375 Z M 0.820312 307.59375 " fill-opacity="1" fill-rule="nonzero"/></g></g></g></g><g clip-path="url(#1795ed43c9)"><g transform="matrix(1, 0, 0, 1, 38, 38)"><g clip-path="url(#cba112daf6)"><g clip-path="url(#183f415248)"><path fill="#3d5a80" d="M 0.398438 307.59375 L 0.398438 0.269531 L 92.957031 0.269531 L 92.957031 307.59375 Z M 0.398438 307.59375 " fill-opacity="1" fill-rule="nonzero"/></g></g></g></g></svg>