<svg xmlns="http://www.w3.org/2000/svg" xmlns:xlink="http://www.w3.org/1999/xlink" width="512" zoomAndPan="magnify" viewBox="0 0 384 383.999986" height="512" preserveAspectRatio="xMidYMid meet" version="1.0"><defs><clipPath id="7d0bdc1d3d"><path d="M 145.609375 38.394531 L 238.167969 38.394531 L 238.167969 345.59375 L 145.609375 345.59375 Z M 145.609375 38.394531 " clip-rule="nonzero"/></clipPath><clipPath id="642dbfcfa0"><path d="M 0.609375 0.394531 L 93.167969 0.394531 L 93.167969 307.59375 L 0.609375 307.59375 Z M 0.609375 0.394531 " clip-rule="nonzero"/></clipPath><clipPath id="a21f9cc99d"><rect x="0" width="94" y="0" height="308"/></clipPath><clipPath id="78a22e5d5d"><path d="M 252.820312 38.394531 L 345.378906 38.394531 L 345.378906 345.59375 L 252.820312 345.59375 Z M 252.820312 38.394531 " clip-rule="nonzero"/></clipPath><clipPath id="77bc5f70eb"><path d="M 0.820312 0.394531 L 93.378906 0.394531 L 93.378906 307.59375 L 0.820312 307.59375 Z M 0.820312 0.394531 " clip-rule="nonzero"/></clipPath><clipPath id="503c0bb772"><rect x="0" width="94" y="0" height="308"/></clipPath><clipPath id="24d1f10427"><path d="M 38.398438 38.394531 L 130.957031 38.394531 L 130.957031 345.59375 L 38.398438 345.59375 Z M 38.398438 38.394531 " clip-rule="nonzero"/></clipPath><clipPath id="6c6b528af1"><path d="M 0.398438 0.394531 L 92.957031 0.394531 L 92.957031 307.59375 L 0.398438 307.59375 Z M 0.398438 0.394531 " clip-rule="nonzero"/></clipPath><clipPath id="0fc05469bd"><rect x="0" width="93" y="0" height="308"/></clipPath></defs><g clip-path="url(#7d0bdc1d3d)"><g transform="matrix(1, 0, 0, 1, 145, 38)"><g clip-path="url(#a21f9cc99d)"><g clip-path="url(#642dbfcfa0)"><path fill="#000000" d="M 0.609375 307.59375 L 0.609375 0.269531 L 93.167969 0.269531 L 93.167969 307.59375 Z M 0.609375 307.59375 " fill-opacity="1" fill-rule="nonzero"/></g></g></g></g><g clip-path="url(#78a22e5d5d)"><g transform="matrix(1, 0, 0, 1, 252, 38)"><g clip-path="url(#503c0bb772)"><g clip-path="url(#77bc5f70eb)"><path fill="#000000" d="M 0.820312 307.59375 L 0.820312 0.269531 L 93.378906 0.269531 L 93.378906 307.59375 Z M 0.820312 307.59375 " fill-opacity="1" fill-rule="nonzero"/></g></g></g></g><g clip-path="url(#24d1f10427)"><g transform="matrix(1, 0, 0, 1, 38, 38)"><g clip-path="url(#0fc05469bd)"><g clip-path="url(#6c6b528af1)"><path fill="#000000" d="M 0.398438 307.59375 L 0.398438 0.269531 L 92.957031 0.269531 L 92.957031 307.59375 Z M 0.398438 307.59375 " fill-opacity="1" fill-rule="nonzero"/></g></g></g></g></svg>