<svg xmlns="http://www.w3.org/2000/svg" xmlns:xlink="http://www.w3.org/1999/xlink" width="1024" zoomAndPan="magnify" viewBox="0 0 768 767.999994" height="1024" preserveAspectRatio="xMidYMid meet" version="1.0"><defs><clipPath id="e41d8b041c"><path d="M 291.21875 76.792969 L 476.339844 76.792969 L 476.339844 691.191406 L 291.21875 691.191406 Z M 291.21875 76.792969 " clip-rule="nonzero"/></clipPath><clipPath id="6abea0ce96"><path d="M 0.21875 0.792969 L 185.339844 0.792969 L 185.339844 615.191406 L 0.21875 615.191406 Z M 0.21875 0.792969 " clip-rule="nonzero"/></clipPath><clipPath id="becf61d748"><rect x="0" width="186" y="0" height="616"/></clipPath><clipPath id="fbf6c3faa3"><path d="M 505.640625 76.792969 L 690.757812 76.792969 L 690.757812 691.191406 L 505.640625 691.191406 Z M 505.640625 76.792969 " clip-rule="nonzero"/></clipPath><clipPath id="759fe72655"><path d="M 0.640625 0.792969 L 185.757812 0.792969 L 185.757812 615.191406 L 0.640625 615.191406 Z M 0.640625 0.792969 " clip-rule="nonzero"/></clipPath><clipPath id="45a0320795"><rect x="0" width="186" y="0" height="616"/></clipPath><clipPath id="a2dd99bd07"><path d="M 76.800781 76.792969 L 261.917969 76.792969 L 261.917969 691.191406 L 76.800781 691.191406 Z M 76.800781 76.792969 " clip-rule="nonzero"/></clipPath><clipPath id="42fe38bcdd"><path d="M 0.800781 0.792969 L 185.917969 0.792969 L 185.917969 615.191406 L 0.800781 615.191406 Z M 0.800781 0.792969 " clip-rule="nonzero"/></clipPath><clipPath id="fd141d2451"><rect x="0" width="186" y="0" height="616"/></clipPath></defs><rect x="-76.8" width="921.6" fill="#ffffff" y="-76.799999" height="921.599993" fill-opacity="1"/><rect x="-76.8" width="921.6" fill="#000000" y="-76.799999" height="921.599993" fill-opacity="1"/><g clip-path="url(#e41d8b041c)"><g transform="matrix(1, 0, 0, 1, 291, 76)"><g clip-path="url(#becf61d748)"><g clip-path="url(#6abea0ce96)"><path fill="#ffffff" d="M 0.21875 615.191406 L 0.21875 0.542969 L 185.339844 0.542969 L 185.339844 615.191406 Z M 0.21875 615.191406 " fill-opacity="1" fill-rule="nonzero"/></g></g></g></g><g clip-path="url(#fbf6c3faa3)"><g transform="matrix(1, 0, 0, 1, 505, 76)"><g clip-path="url(#45a0320795)"><g clip-path="url(#759fe72655)"><path fill="#ffffff" d="M 0.640625 615.191406 L 0.640625 0.542969 L 185.757812 0.542969 L 185.757812 615.191406 Z M 0.640625 615.191406 " fill-opacity="1" fill-rule="nonzero"/></g></g></g></g><g clip-path="url(#a2dd99bd07)"><g transform="matrix(1, 0, 0, 1, 76, 76)"><g clip-path="url(#fd141d2451)"><g clip-path="url(#42fe38bcdd)"><path fill="#ffffff" d="M 0.800781 615.191406 L 0.800781 0.542969 L 185.917969 0.542969 L 185.917969 615.191406 Z M 0.800781 615.191406 " fill-opacity="1" fill-rule="nonzero"/></g></g></g></g></svg>