<svg xmlns="http://www.w3.org/2000/svg" xmlns:xlink="http://www.w3.org/1999/xlink" width="512" zoomAndPan="magnify" viewBox="0 0 384 383.999986" height="512" preserveAspectRatio="xMidYMid meet" version="1.0"><defs><clipPath id="e65f9f2e3c"><path d="M 145.609375 38.394531 L 238.167969 38.394531 L 238.167969 345.59375 L 145.609375 345.59375 Z M 145.609375 38.394531 " clip-rule="nonzero"/></clipPath><clipPath id="00dd9e60bd"><path d="M 0.609375 0.394531 L 93.167969 0.394531 L 93.167969 307.59375 L 0.609375 307.59375 Z M 0.609375 0.394531 " clip-rule="nonzero"/></clipPath><clipPath id="f716aa1c1c"><rect x="0" width="94" y="0" height="308"/></clipPath><clipPath id="7d4f5007d3"><path d="M 252.820312 38.394531 L 345.378906 38.394531 L 345.378906 345.59375 L 252.820312 345.59375 Z M 252.820312 38.394531 " clip-rule="nonzero"/></clipPath><clipPath id="7515617101"><path d="M 0.820312 0.394531 L 93.378906 0.394531 L 93.378906 307.59375 L 0.820312 307.59375 Z M 0.820312 0.394531 " clip-rule="nonzero"/></clipPath><clipPath id="2a54ee95e9"><rect x="0" width="94" y="0" height="308"/></clipPath><clipPath id="f1ee4ae8ed"><path d="M 38.398438 38.394531 L 130.957031 38.394531 L 130.957031 345.59375 L 38.398438 345.59375 Z M 38.398438 38.394531 " clip-rule="nonzero"/></clipPath><clipPath id="aa86b83b62"><path d="M 0.398438 0.394531 L 92.957031 0.394531 L 92.957031 307.59375 L 0.398438 307.59375 Z M 0.398438 0.394531 " clip-rule="nonzero"/></clipPath><clipPath id="9ad9ba9d0b"><rect x="0" width="93" y="0" height="308"/></clipPath></defs><rect x="-38.4" width="460.8" fill="#ffffff" y="-38.399999" height="460.799983" fill-opacity="1"/><rect x="-38.4" width="460.8" fill="#000000" y="-38.399999" height="460.799983" fill-opacity="1"/><g clip-path="url(#e65f9f2e3c)"><g transform="matrix(1, 0, 0, 1, 145, 38)"><g clip-path="url(#f716aa1c1c)"><g clip-path="url(#00dd9e60bd)"><path fill="#ffffff" d="M 0.609375 307.59375 L 0.609375 0.269531 L 93.167969 0.269531 L 93.167969 307.59375 Z M 0.609375 307.59375 " fill-opacity="1" fill-rule="nonzero"/></g></g></g></g><g clip-path="url(#7d4f5007d3)"><g transform="matrix(1, 0, 0, 1, 252, 38)"><g clip-path="url(#2a54ee95e9)"><g clip-path="url(#7515617101)"><path fill="#ffffff" d="M 0.820312 307.59375 L 0.820312 0.269531 L 93.378906 0.269531 L 93.378906 307.59375 Z M 0.820312 307.59375 " fill-opacity="1" fill-rule="nonzero"/></g></g></g></g><g clip-path="url(#f1ee4ae8ed)"><g transform="matrix(1, 0, 0, 1, 38, 38)"><g clip-path="url(#9ad9ba9d0b)"><g clip-path="url(#aa86b83b62)"><path fill="#ffffff" d="M 0.398438 307.59375 L 0.398438 0.269531 L 92.957031 0.269531 L 92.957031 307.59375 Z M 0.398438 307.59375 " fill-opacity="1" fill-rule="nonzero"/></g></g></g></g></svg>