<svg xmlns="http://www.w3.org/2000/svg" xmlns:xlink="http://www.w3.org/1999/xlink" width="40" zoomAndPan="magnify" viewBox="0 0 30 37.92" height="40" preserveAspectRatio="xMidYMid meet" version="1.0"><defs><clipPath id="dad8569aee"><path d="M 3.023438 3.414062 L 26.070312 3.414062 L 26.070312 26.546875 L 3.023438 26.546875 Z M 3.023438 3.414062 " clip-rule="nonzero"/></clipPath><clipPath id="6570fe6595"><path d="M 7.515625 3.414062 L 21.582031 3.414062 C 24.0625 3.414062 26.070312 5.421875 26.070312 7.902344 L 26.070312 22.035156 C 26.070312 24.515625 24.0625 26.523438 21.582031 26.523438 L 7.515625 26.523438 C 5.035156 26.523438 3.023438 24.515625 3.023438 22.035156 L 3.023438 7.902344 C 3.023438 5.421875 5.035156 3.414062 7.515625 3.414062 Z M 7.515625 3.414062 " clip-rule="nonzero"/></clipPath><clipPath id="83df487284"><path d="M 0.0234375 0.414062 L 23.070312 0.414062 L 23.070312 23.546875 L 0.0234375 23.546875 Z M 0.0234375 0.414062 " clip-rule="nonzero"/></clipPath><clipPath id="d854b91c43"><path d="M 4.515625 0.414062 L 18.582031 0.414062 C 21.0625 0.414062 23.070312 2.421875 23.070312 4.902344 L 23.070312 19.035156 C 23.070312 21.515625 21.0625 23.523438 18.582031 23.523438 L 4.515625 23.523438 C 2.035156 23.523438 0.0234375 21.515625 0.0234375 19.035156 L 0.0234375 4.902344 C 0.0234375 2.421875 2.035156 0.414062 4.515625 0.414062 Z M 4.515625 0.414062 " clip-rule="nonzero"/></clipPath><clipPath id="2c18925fdc"><rect x="0" width="24" y="0" height="24"/></clipPath></defs><g clip-path="url(#dad8569aee)"><g clip-path="url(#6570fe6595)"><g transform="matrix(1, 0, 0, 1, 3, 3)"><g clip-path="url(#2c18925fdc)"><g clip-path="url(#83df487284)"><g clip-path="url(#d854b91c43)"><path fill="#fafafa" d="M 0.0234375 0.414062 L 23.070312 0.414062 L 23.070312 23.546875 L 0.0234375 23.546875 Z M 0.0234375 0.414062 " fill-opacity="1" fill-rule="nonzero"/></g></g></g></g></g></g><path stroke-linecap="round" transform="matrix(0.654868, 0, 0, 0.654868, 6.639391, 6.609415)" fill="none" stroke-linejoin="round" d="M 14.99774 1.998194 L 11.001231 1.998194 C 10.732809 1.998194 10.482281 2.051878 10.231754 2.153282 C 9.987191 2.254686 9.772454 2.397845 9.587541 2.588723 C 9.396662 2.773636 9.253504 2.988374 9.1521 3.232936 C 9.050696 3.477499 9.002976 3.733991 9.002976 4.002413 L 9.002976 15.001761 C 9.002976 15.264218 9.050696 15.52071 9.1521 15.765273 C 9.253504 16.009835 9.396662 16.224573 9.587541 16.415451 C 9.772454 16.600364 9.987191 16.743523 10.231754 16.844927 C 10.482281 16.946331 10.732809 17.000015 11.001231 17.000015 L 19.000214 17.000015 C 19.262672 17.000015 19.519164 16.946331 19.763726 16.844927 C 20.008289 16.743523 20.228992 16.600364 20.413905 16.415451 C 20.598818 16.224573 20.747941 16.009835 20.849345 15.765273 C 20.950749 15.52071 20.998469 15.264218 20.998469 15.001761 L 20.998469 7.998922 " stroke="#000000" stroke-width="1.75" stroke-opacity="1" stroke-miterlimit="4"/><path stroke-linecap="round" transform="matrix(0.654868, 0, 0, 0.654868, 6.639391, 6.609415)" fill="none" stroke-linejoin="round" d="M 16.703713 2.708021 C 16.232483 2.230826 15.665813 1.998194 14.99774 1.998194 L 14.99774 7.002777 C 14.99774 7.277165 15.099144 7.509797 15.290022 7.70664 C 15.486865 7.903483 15.725463 7.998922 15.99985 7.998922 L 20.998469 7.998922 C 21.004434 7.330849 20.765836 6.76418 20.294606 6.29295 Z M 16.703713 2.708021 " stroke="#000000" stroke-width="1.75" stroke-opacity="1" stroke-miterlimit="4"/><path stroke-linecap="round" transform="matrix(0.654868, 0, 0, 0.654868, 6.639391, 6.609415)" fill="none" stroke-linejoin="round" d="M 5.000502 7.002777 C 4.73208 7.002777 4.481553 7.050497 4.23699 7.151901 C 3.992428 7.253305 3.771725 7.396463 3.586812 7.587342 C 3.395934 7.772255 3.252775 7.986992 3.151371 8.23752 C 3.049967 8.482082 3.002248 8.73261 3.002248 9.001032 L 3.002248 20.00038 C 3.002248 20.262837 3.049967 20.519329 3.151371 20.763892 C 3.252775 21.008454 3.395934 21.229157 3.586812 21.41407 C 3.771725 21.598983 3.992428 21.748107 4.23699 21.849511 C 4.481553 21.950915 4.73208 21.998634 5.000502 21.998634 L 12.999486 21.998634 C 13.768963 21.998634 14.347562 21.664597 14.729318 21.002489 " stroke="#000000" stroke-width="1.75" stroke-opacity="1" stroke-miterlimit="4"/></svg>