<svg xmlns="http://www.w3.org/2000/svg" xmlns:xlink="http://www.w3.org/1999/xlink" width="40" zoomAndPan="magnify" viewBox="0 0 30 37.92" height="40" preserveAspectRatio="xMidYMid meet" version="1.0"><defs><clipPath id="23db2bf25e"><path d="M 3.628906 3.5625 L 26.371094 3.5625 L 26.371094 26.398438 L 3.628906 26.398438 Z M 3.628906 3.5625 " clip-rule="nonzero"/></clipPath><clipPath id="3f88d89d96"><path d="M 8.117188 3.5625 L 21.882812 3.5625 C 24.359375 3.5625 26.371094 5.574219 26.371094 8.054688 L 26.371094 21.882812 C 26.371094 24.363281 24.359375 26.371094 21.882812 26.371094 L 8.117188 26.371094 C 5.640625 26.371094 3.628906 24.363281 3.628906 21.882812 L 3.628906 8.054688 C 3.628906 5.574219 5.640625 3.5625 8.117188 3.5625 Z M 8.117188 3.5625 " clip-rule="nonzero"/></clipPath><clipPath id="2e8e9ff644"><path d="M 0.628906 0.5625 L 23.371094 0.5625 L 23.371094 23.398438 L 0.628906 23.398438 Z M 0.628906 0.5625 " clip-rule="nonzero"/></clipPath><clipPath id="180ccde456"><path d="M 5.117188 0.5625 L 18.882812 0.5625 C 21.359375 0.5625 23.371094 2.574219 23.371094 5.054688 L 23.371094 18.882812 C 23.371094 21.363281 21.359375 23.371094 18.882812 23.371094 L 5.117188 23.371094 C 2.640625 23.371094 0.628906 21.363281 0.628906 18.882812 L 0.628906 5.054688 C 0.628906 2.574219 2.640625 0.5625 5.117188 0.5625 Z M 5.117188 0.5625 " clip-rule="nonzero"/></clipPath><clipPath id="9cc8fbf866"><rect x="0" width="24" y="0" height="24"/></clipPath></defs><g clip-path="url(#23db2bf25e)"><g clip-path="url(#3f88d89d96)"><g transform="matrix(1, 0, 0, 1, 3, 3)"><g clip-path="url(#9cc8fbf866)"><g clip-path="url(#2e8e9ff644)"><g clip-path="url(#180ccde456)"><path fill="#fafafa" d="M 0.628906 0.5625 L 23.371094 0.5625 L 23.371094 23.398438 L 0.628906 23.398438 Z M 0.628906 0.5625 " fill-opacity="1" fill-rule="nonzero"/></g></g></g></g></g></g><path stroke-linecap="round" transform="matrix(0.654868, 0, 0, 0.654868, 7.322053, 7.290471)" fill="none" stroke-linejoin="round" d="M 5.998071 22.002508 C 5.735614 22.002508 5.479121 21.948824 5.234559 21.84742 C 4.989996 21.746016 4.775259 21.602857 4.584381 21.411979 C 4.399468 21.227066 4.256309 21.012328 4.154905 20.767766 C 4.053501 20.523203 3.999817 20.266711 3.999817 19.998289 L 3.999817 4.000324 C 3.999817 3.731901 4.053501 3.481374 4.154905 3.236811 C 4.256309 2.992249 4.399468 2.771546 4.584381 2.586633 C 4.775259 2.395755 4.989996 2.252597 5.234559 2.151193 C 5.479121 2.049789 5.735614 2.002069 5.998071 2.002069 L 13.997054 2.002069 C 14.665127 1.996104 15.231796 2.234702 15.703026 2.705932 L 19.293919 6.296825 C 19.765149 6.76209 20.003747 7.334724 19.997782 8.002797 L 19.997782 19.998289 C 19.997782 20.266711 19.950062 20.523203 19.848658 20.767766 C 19.747254 21.012328 19.604096 21.227066 19.413218 21.411979 C 19.228305 21.602857 19.007602 21.746016 18.76304 21.84742 C 18.518477 21.948824 18.26795 22.002508 17.999527 22.002508 Z M 5.998071 22.002508 " stroke="#000000" stroke-width="1.75" stroke-opacity="1" stroke-miterlimit="4"/><path stroke-linecap="round" transform="matrix(0.654868, 0, 0, 0.654868, 7.322053, 7.290471)" fill="none" stroke-linejoin="round" d="M 13.997054 2.002069 L 13.997054 7.000688 C 13.997054 7.275075 14.098458 7.513672 14.295301 7.70455 C 14.486179 7.901393 14.724776 8.002797 14.999163 8.002797 L 19.997782 8.002797 " stroke="#000000" stroke-width="1.75" stroke-opacity="1" stroke-miterlimit="4"/><path stroke-linecap="round" transform="matrix(0.654868, 0, 0, 0.654868, 7.322053, 7.290471)" fill="none" stroke-linejoin="round" d="M 10.000545 8.998942 L 8.00229 8.998942 " stroke="#000000" stroke-width="1.75" stroke-opacity="1" stroke-miterlimit="4"/><path stroke-linecap="round" transform="matrix(0.654868, 0, 0, 0.654868, 7.322053, 7.290471)" fill="none" stroke-linejoin="round" d="M 16.001273 13.001416 L 8.00229 13.001416 " stroke="#000000" stroke-width="1.75" stroke-opacity="1" stroke-miterlimit="4"/><path stroke-linecap="round" transform="matrix(0.654868, 0, 0, 0.654868, 7.322053, 7.290471)" fill="none" stroke-linejoin="round" d="M 16.001273 16.997925 L 8.00229 16.997925 " stroke="#000000" stroke-width="1.75" stroke-opacity="1" stroke-miterlimit="4"/></svg>