<svg xmlns="http://www.w3.org/2000/svg" xmlns:xlink="http://www.w3.org/1999/xlink" width="40" zoomAndPan="magnify" viewBox="0 0 30 37.92" height="40" preserveAspectRatio="xMidYMid meet" version="1.0"><defs><clipPath id="db817bbe6b"><path d="M 4.0625 4 L 25.9375 4 L 25.9375 25.960938 L 4.0625 25.960938 Z M 4.0625 4 " clip-rule="nonzero"/></clipPath><clipPath id="d70dd8c65c"><path d="M 8.554688 4 L 21.445312 4 C 23.925781 4 25.9375 6.011719 25.9375 8.492188 L 25.9375 21.445312 C 25.9375 23.925781 23.925781 25.9375 21.445312 25.9375 L 8.554688 25.9375 C 6.074219 25.9375 4.0625 23.925781 4.0625 21.445312 L 4.0625 8.492188 C 4.0625 6.011719 6.074219 4 8.554688 4 Z M 8.554688 4 " clip-rule="nonzero"/></clipPath><clipPath id="53d6899a48"><path d="M 0.0625 0 L 21.9375 0 L 21.9375 21.960938 L 0.0625 21.960938 Z M 0.0625 0 " clip-rule="nonzero"/></clipPath><clipPath id="ff9234f7fd"><path d="M 4.554688 0 L 17.445312 0 C 19.925781 0 21.9375 2.011719 21.9375 4.492188 L 21.9375 17.445312 C 21.9375 19.925781 19.925781 21.9375 17.445312 21.9375 L 4.554688 21.9375 C 2.074219 21.9375 0.0625 19.925781 0.0625 17.445312 L 0.0625 4.492188 C 0.0625 2.011719 2.074219 0 4.554688 0 Z M 4.554688 0 " clip-rule="nonzero"/></clipPath><clipPath id="a201a17c5f"><rect x="0" width="22" y="0" height="22"/></clipPath></defs><g clip-path="url(#db817bbe6b)"><g clip-path="url(#d70dd8c65c)"><g transform="matrix(1, 0, 0, 1, 4, 4)"><g clip-path="url(#a201a17c5f)"><g clip-path="url(#53d6899a48)"><g clip-path="url(#ff9234f7fd)"><path fill="#fafafa" d="M 0.0625 0 L 21.9375 0 L 21.9375 21.960938 L 0.0625 21.960938 Z M 0.0625 0 " fill-opacity="1" fill-rule="nonzero"/></g></g></g></g></g></g><path stroke-linecap="round" transform="matrix(0.623684, 0, 0, 0.623684, 7.509866, 7.034344)" fill="none" stroke-linejoin="round" d="M 21.999281 16.99959 C 21.999281 17.262644 21.949175 17.519434 21.848964 17.763699 C 21.748753 18.007963 21.6047 18.227174 21.416804 18.41507 C 21.228909 18.602966 21.009697 18.747019 20.765433 18.84723 C 20.521169 18.947441 20.264378 18.997546 20.001324 18.997546 L 6.829843 18.997546 C 6.278683 18.997546 5.802681 19.197968 5.414363 19.586286 L 3.209722 21.790927 C 2.99051 22.010139 2.727456 22.060244 2.43935 21.941244 C 2.14498 21.822243 2.000927 21.603032 2.000927 21.283609 L 2.000927 4.999325 C 2.000927 4.736271 2.051032 4.47948 2.151243 4.235216 C 2.251454 3.990952 2.395507 3.77174 2.583403 3.583845 C 2.771299 3.395949 2.99051 3.251896 3.234774 3.151685 C 3.479039 3.051474 3.735829 3.001368 3.998883 3.001368 L 20.001324 3.001368 C 20.264378 3.001368 20.521169 3.051474 20.765433 3.151685 C 21.009697 3.251896 21.228909 3.395949 21.416804 3.583845 C 21.6047 3.77174 21.748753 3.990952 21.848964 4.235216 C 21.949175 4.47948 21.999281 4.736271 21.999281 4.999325 Z M 21.999281 16.99959 " stroke="#000000" stroke-width="1.75" stroke-opacity="1" stroke-miterlimit="4"/></svg>