<svg xmlns="http://www.w3.org/2000/svg" xmlns:xlink="http://www.w3.org/1999/xlink" width="40" zoomAndPan="magnify" viewBox="0 0 30 37.92" height="40" preserveAspectRatio="xMidYMid meet" version="1.0"><defs><clipPath id="f04d7987e9"><path d="M 3.871094 3.808594 L 26.128906 3.808594 L 26.128906 26.152344 L 3.871094 26.152344 Z M 3.871094 3.808594 " clip-rule="nonzero"/></clipPath><clipPath id="bc3da455d4"><path d="M 8.359375 3.808594 L 21.640625 3.808594 C 22.832031 3.808594 23.972656 4.28125 24.816406 5.121094 C 25.65625 5.964844 26.128906 7.105469 26.128906 8.296875 L 26.128906 21.640625 C 26.128906 22.832031 25.65625 23.972656 24.816406 24.816406 C 23.972656 25.65625 22.832031 26.128906 21.640625 26.128906 L 8.359375 26.128906 C 7.167969 26.128906 6.027344 25.65625 5.183594 24.816406 C 4.34375 23.972656 3.871094 22.832031 3.871094 21.640625 L 3.871094 8.296875 C 3.871094 7.105469 4.34375 5.964844 5.183594 5.121094 C 6.027344 4.28125 7.167969 3.808594 8.359375 3.808594 Z M 8.359375 3.808594 " clip-rule="nonzero"/></clipPath><clipPath id="a70a731076"><path d="M 0.871094 0.808594 L 23.128906 0.808594 L 23.128906 23.152344 L 0.871094 23.152344 Z M 0.871094 0.808594 " clip-rule="nonzero"/></clipPath><clipPath id="0e003b1289"><path d="M 5.359375 0.808594 L 18.640625 0.808594 C 19.832031 0.808594 20.972656 1.28125 21.816406 2.121094 C 22.65625 2.964844 23.128906 4.105469 23.128906 5.296875 L 23.128906 18.640625 C 23.128906 19.832031 22.65625 20.972656 21.816406 21.816406 C 20.972656 22.65625 19.832031 23.128906 18.640625 23.128906 L 5.359375 23.128906 C 4.167969 23.128906 3.027344 22.65625 2.183594 21.816406 C 1.34375 20.972656 0.871094 19.832031 0.871094 18.640625 L 0.871094 5.296875 C 0.871094 4.105469 1.34375 2.964844 2.183594 2.121094 C 3.027344 1.28125 4.167969 0.808594 5.359375 0.808594 Z M 5.359375 0.808594 " clip-rule="nonzero"/></clipPath><clipPath id="def12a718f"><rect x="0" width="24" y="0" height="24"/></clipPath></defs><g clip-path="url(#f04d7987e9)"><g clip-path="url(#bc3da455d4)"><g transform="matrix(1, 0, 0, 1, 3, 3)"><g clip-path="url(#def12a718f)"><g clip-path="url(#a70a731076)"><g clip-path="url(#0e003b1289)"><path fill="#ff8335" d="M 0.871094 0.808594 L 23.128906 0.808594 L 23.128906 23.152344 L 0.871094 23.152344 Z M 0.871094 0.808594 " fill-opacity="1" fill-rule="nonzero"/></g></g></g></g></g></g><path stroke-linecap="round" transform="matrix(0.623684, 0, 0, 0.623684, 7.470006, 7.693353)" fill="none" stroke-linejoin="round" d="M 5.002271 2.996944 L 19.000491 2.996944 C 19.263545 2.996944 19.520336 3.053313 19.7646 3.153524 C 20.008864 3.253735 20.228076 3.397788 20.415971 3.585684 C 20.603867 3.773579 20.74792 3.986527 20.848131 4.237055 C 20.948342 4.481319 20.998448 4.731847 20.998448 5.001164 L 20.998448 18.999384 C 20.998448 19.262438 20.948342 19.519228 20.848131 19.763493 C 20.74792 20.007757 20.603867 20.226968 20.415971 20.414864 C 20.228076 20.602759 20.008864 20.746813 19.7646 20.847024 C 19.520336 20.947235 19.263545 20.99734 19.000491 20.99734 L 5.002271 20.99734 C 4.732954 20.99734 4.482427 20.947235 4.231899 20.847024 C 3.987635 20.746813 3.774687 20.602759 3.586791 20.414864 C 3.398895 20.226968 3.254842 20.007757 3.154631 19.763493 C 3.048157 19.519228 2.998052 19.262438 2.998052 18.999384 L 2.998052 5.001164 C 2.998052 4.731847 3.048157 4.481319 3.154631 4.237055 C 3.254842 3.986527 3.398895 3.773579 3.586791 3.585684 C 3.774687 3.397788 3.987635 3.253735 4.231899 3.153524 C 4.482427 3.053313 4.732954 2.996944 5.002271 2.996944 Z M 5.002271 2.996944 " stroke="#000000" stroke-width="1.75" stroke-opacity="1" stroke-miterlimit="4"/><path stroke-linecap="round" transform="matrix(0.623684, 0, 0, 0.623684, 7.470006, 7.693353)" fill="none" stroke-linejoin="round" d="M 8.998184 2.996944 L 8.998184 20.99734 " stroke="#000000" stroke-width="1.75" stroke-opacity="1" stroke-miterlimit="4"/><path stroke-linecap="round" transform="matrix(0.623684, 0, 0, 0.623684, 7.470006, 7.693353)" fill="none" stroke-linejoin="round" d="M 14.998316 2.996944 L 14.998316 20.99734 " stroke="#000000" stroke-width="1.75" stroke-opacity="1" stroke-miterlimit="4"/></svg>