<svg xmlns="http://www.w3.org/2000/svg" xmlns:xlink="http://www.w3.org/1999/xlink" width="40" zoomAndPan="magnify" viewBox="0 0 30 37.92" height="40" preserveAspectRatio="xMidYMid meet" version="1.0"><defs><clipPath id="fa06b33650"><path d="M 4 3.859375 L 25.992188 3.859375 L 25.992188 26 L 4 26 Z M 4 3.859375 " clip-rule="nonzero"/></clipPath><clipPath id="691cd1c5c2"><path d="M 8.496094 3.945312 L 21.503906 3.945312 C 23.984375 3.945312 25.992188 5.953125 25.992188 8.433594 L 25.992188 21.503906 C 25.992188 23.984375 23.984375 25.992188 21.503906 25.992188 L 8.496094 25.992188 C 6.015625 25.992188 4.007812 23.984375 4.007812 21.503906 L 4.007812 8.433594 C 4.007812 5.953125 6.015625 3.945312 8.496094 3.945312 Z M 8.496094 3.945312 " clip-rule="nonzero"/></clipPath><clipPath id="9e2d9db6d1"><path d="M 0 0.859375 L 21.992188 0.859375 L 21.992188 23 L 0 23 Z M 0 0.859375 " clip-rule="nonzero"/></clipPath><clipPath id="3a0980c983"><path d="M 4.496094 0.945312 L 17.503906 0.945312 C 19.984375 0.945312 21.992188 2.953125 21.992188 5.433594 L 21.992188 18.503906 C 21.992188 20.984375 19.984375 22.992188 17.503906 22.992188 L 4.496094 22.992188 C 2.015625 22.992188 0.0078125 20.984375 0.0078125 18.503906 L 0.0078125 5.433594 C 0.0078125 2.953125 2.015625 0.945312 4.496094 0.945312 Z M 4.496094 0.945312 " clip-rule="nonzero"/></clipPath><clipPath id="4465e0538f"><rect x="0" width="22" y="0" height="23"/></clipPath></defs><g clip-path="url(#fa06b33650)"><g clip-path="url(#691cd1c5c2)"><g transform="matrix(1, 0, 0, 1, 4, 3)"><g clip-path="url(#4465e0538f)"><g clip-path="url(#9e2d9db6d1)"><g clip-path="url(#3a0980c983)"><path fill="#fafafa" d="M 0.0078125 0.945312 L 21.992188 0.945312 L 21.992188 23.015625 L 0.0078125 23.015625 Z M 0.0078125 0.945312 " fill-opacity="1" fill-rule="nonzero"/></g></g></g></g></g></g><path stroke-linecap="round" transform="matrix(0.5925, 0, 0, 0.5925, 7.883964, 7.8524)" fill="none" stroke-linejoin="round" d="M 5.002012 8.002278 L 11.001485 14.001751 " stroke="#000000" stroke-width="1.75" stroke-opacity="1" stroke-miterlimit="4"/><path stroke-linecap="round" transform="matrix(0.5925, 0, 0, 0.5925, 7.883964, 7.8524)" fill="none" stroke-linejoin="round" d="M 3.999902 14.001751 L 9.999375 8.002278 L 11.997002 5.002542 " stroke="#000000" stroke-width="1.75" stroke-opacity="1" stroke-miterlimit="4"/><path stroke-linecap="round" transform="matrix(0.5925, 0, 0, 0.5925, 7.883964, 7.8524)" fill="none" stroke-linejoin="round" d="M 2.002275 5.002542 L 14.001221 5.002542 " stroke="#000000" stroke-width="1.75" stroke-opacity="1" stroke-miterlimit="4"/><path stroke-linecap="round" transform="matrix(0.5925, 0, 0, 0.5925, 7.883964, 7.8524)" fill="none" stroke-linejoin="round" d="M 6.999639 2.002805 L 8.001748 2.002805 " stroke="#000000" stroke-width="1.75" stroke-opacity="1" stroke-miterlimit="4"/><path stroke-linecap="round" transform="matrix(0.5925, 0, 0, 0.5925, 7.883964, 7.8524)" fill="none" stroke-linejoin="round" d="M 21.998321 21.998851 L 17.000958 11.997532 L 11.997002 21.998851 " stroke="#000000" stroke-width="1.75" stroke-opacity="1" stroke-miterlimit="4"/><path stroke-linecap="round" transform="matrix(0.5925, 0, 0, 0.5925, 7.883964, 7.8524)" fill="none" stroke-linejoin="round" d="M 14.001221 17.997005 L 20.000694 17.997005 " stroke="#000000" stroke-width="1.75" stroke-opacity="1" stroke-miterlimit="4"/></svg>