<svg xmlns="http://www.w3.org/2000/svg" xmlns:xlink="http://www.w3.org/1999/xlink" width="40" zoomAndPan="magnify" viewBox="0 0 30 37.92" height="40" preserveAspectRatio="xMidYMid meet" version="1.0"><defs><clipPath id="1c3b8d529d"><path d="M 4.382812 4.324219 L 25.617188 4.324219 L 25.617188 25.636719 L 4.382812 25.636719 Z M 4.382812 4.324219 " clip-rule="nonzero"/></clipPath><clipPath id="3131f3054a"><path d="M 8.875 4.324219 L 21.125 4.324219 C 22.316406 4.324219 23.457031 4.796875 24.300781 5.636719 C 25.144531 6.480469 25.617188 7.621094 25.617188 8.8125 L 25.617188 21.125 C 25.617188 22.316406 25.144531 23.457031 24.300781 24.300781 C 23.457031 25.140625 22.316406 25.613281 21.125 25.613281 L 8.875 25.613281 C 7.683594 25.613281 6.542969 25.140625 5.699219 24.300781 C 4.855469 23.457031 4.382812 22.316406 4.382812 21.125 L 4.382812 8.8125 C 4.382812 7.621094 4.855469 6.480469 5.699219 5.636719 C 6.542969 4.796875 7.683594 4.324219 8.875 4.324219 Z M 8.875 4.324219 " clip-rule="nonzero"/></clipPath><clipPath id="bb2dc724a5"><path d="M 0.382812 0.324219 L 21.617188 0.324219 L 21.617188 21.625 L 0.382812 21.625 Z M 0.382812 0.324219 " clip-rule="nonzero"/></clipPath><clipPath id="30e973178e"><path d="M 4.875 0.324219 L 17.125 0.324219 C 18.316406 0.324219 19.457031 0.796875 20.300781 1.636719 C 21.144531 2.480469 21.617188 3.621094 21.617188 4.8125 L 21.617188 17.125 C 21.617188 18.316406 21.144531 19.457031 20.300781 20.300781 C 19.457031 21.140625 18.316406 21.613281 17.125 21.613281 L 4.875 21.613281 C 3.683594 21.613281 2.542969 21.140625 1.699219 20.300781 C 0.855469 19.457031 0.382812 18.316406 0.382812 17.125 L 0.382812 4.8125 C 0.382812 3.621094 0.855469 2.480469 1.699219 1.636719 C 2.542969 0.796875 3.683594 0.324219 4.875 0.324219 Z M 4.875 0.324219 " clip-rule="nonzero"/></clipPath><clipPath id="4ceb42d6a9"><rect x="0" width="22" y="0" height="22"/></clipPath><clipPath id="d3d708c01d"><path d="M 8.367188 9 L 21.839844 9 L 21.839844 22 L 8.367188 22 Z M 8.367188 9 " clip-rule="nonzero"/></clipPath><clipPath id="4d0a623d20"><path d="M 8.367188 14 L 21.839844 14 L 21.839844 16 L 8.367188 16 Z M 8.367188 14 " clip-rule="nonzero"/></clipPath></defs><g clip-path="url(#1c3b8d529d)"><g clip-path="url(#3131f3054a)"><g transform="matrix(1, 0, 0, 1, 4, 4)"><g clip-path="url(#4ceb42d6a9)"><g clip-path="url(#bb2dc724a5)"><g clip-path="url(#30e973178e)"><path fill="#afe2ff" d="M 0.382812 0.324219 L 21.617188 0.324219 L 21.617188 21.636719 L 0.382812 21.636719 Z M 0.382812 0.324219 " fill-opacity="1" fill-rule="nonzero"/></g></g></g></g></g></g><g clip-path="url(#d3d708c01d)"><path stroke-linecap="round" transform="matrix(0.561316, 0, 0, 0.561316, 8.367262, 8.583138)" fill="none" stroke-linejoin="round" d="M 21.997567 12.002469 C 21.997567 12.656624 21.934936 13.30382 21.809672 13.951015 C 21.677449 14.598211 21.489553 15.217571 21.239026 15.829971 C 20.988499 16.435412 20.682298 17.013017 20.313466 17.555827 C 19.951593 18.098636 19.534048 18.60665 19.067788 19.07291 C 18.608488 19.53221 18.100474 19.949756 17.557664 20.311629 C 17.007896 20.680461 16.430291 20.986661 15.82485 21.237188 C 15.219408 21.487716 14.59309 21.68257 13.952853 21.807834 C 13.305657 21.933098 12.658461 22.002689 11.997347 22.002689 C 11.343192 22.002689 10.695996 21.933098 10.0488 21.807834 C 9.408564 21.68257 8.782245 21.487716 8.169845 21.237188 C 7.564403 20.986661 6.986798 20.680461 6.443989 20.311629 C 5.90118 19.949756 5.393166 19.53221 4.926906 19.07291 C 4.467606 18.60665 4.05006 18.098636 3.688187 17.555827 C 3.319355 17.013017 3.013155 16.435412 2.762628 15.829971 C 2.5121 15.217571 2.317245 14.598211 2.191982 13.951015 C 2.066718 13.30382 1.997127 12.656624 1.997127 12.002469 C 1.997127 11.341355 2.066718 10.694159 2.191982 10.046963 C 2.317245 9.406726 2.5121 8.780407 2.762628 8.174966 C 3.013155 7.569525 3.319355 6.99192 3.688187 6.442151 C 4.05006 5.899342 4.467606 5.391328 4.926906 4.932028 C 5.393166 4.465768 5.90118 4.048223 6.443989 3.68635 C 6.986798 3.317518 7.564403 3.011317 8.169845 2.76079 C 8.782245 2.510262 9.408564 2.322367 10.0488 2.190144 C 10.695996 2.06488 11.343192 2.002249 11.997347 2.002249 C 12.658461 2.002249 13.305657 2.06488 13.952853 2.190144 C 14.59309 2.322367 15.219408 2.510262 15.82485 2.76079 C 16.430291 3.011317 17.007896 3.317518 17.557664 3.68635 C 18.100474 4.048223 18.608488 4.465768 19.067788 4.932028 C 19.534048 5.391328 19.951593 5.899342 20.313466 6.442151 C 20.682298 6.99192 20.988499 7.569525 21.239026 8.174966 C 21.489553 8.780407 21.677449 9.406726 21.809672 10.046963 C 21.934936 10.694159 21.997567 11.341355 21.997567 12.002469 Z M 21.997567 12.002469 " stroke="#000000" stroke-width="1.75" stroke-opacity="1" stroke-miterlimit="4"/></g><path stroke-linecap="round" transform="matrix(0.561316, 0, 0, 0.561316, 8.367262, 8.583138)" fill="none" stroke-linejoin="round" d="M 11.997347 2.002249 C 11.36407 2.670322 10.793424 3.387109 10.299328 4.166527 C 9.798273 4.938987 9.380727 5.76016 9.039732 6.616129 C 8.691777 7.472098 8.43429 8.348944 8.260313 9.260585 C 8.086336 10.165267 8.002826 11.076909 8.002826 12.002469 C 8.002826 12.921069 8.086336 13.83967 8.260313 14.744352 C 8.43429 15.649035 8.691777 16.525881 9.039732 17.381849 C 9.380727 18.244777 9.798273 19.058991 10.299328 19.831451 C 10.793424 20.61087 11.36407 21.334616 11.997347 22.002689 C 12.637584 21.334616 13.201271 20.61087 13.702326 19.831451 C 14.20338 19.058991 14.620926 18.244777 14.961922 17.381849 C 15.302918 16.525881 15.567363 15.649035 15.741341 14.744352 C 15.915318 13.83967 15.998827 12.921069 15.998827 12.002469 C 15.998827 11.076909 15.915318 10.165267 15.741341 9.260585 C 15.567363 8.348944 15.302918 7.472098 14.961922 6.616129 C 14.620926 5.76016 14.20338 4.938987 13.702326 4.166527 C 13.201271 3.387109 12.637584 2.670322 11.997347 2.002249 " stroke="#000000" stroke-width="1.75" stroke-opacity="1" stroke-miterlimit="4"/><g clip-path="url(#4d0a623d20)"><path stroke-linecap="round" transform="matrix(0.561316, 0, 0, 0.561316, 8.367262, 8.583138)" fill="none" stroke-linejoin="round" d="M 1.997127 12.002469 L 21.997567 12.002469 " stroke="#000000" stroke-width="1.75" stroke-opacity="1" stroke-miterlimit="4"/></g></svg>