<svg xmlns="http://www.w3.org/2000/svg" xmlns:xlink="http://www.w3.org/1999/xlink" width="40" zoomAndPan="magnify" viewBox="0 0 30 37.92" height="40" preserveAspectRatio="xMidYMid meet" version="1.0"><defs><clipPath id="b8780befcf"><path d="M 3.769531 3.703125 L 26.144531 3.703125 L 26.144531 26.167969 L 3.769531 26.167969 Z M 3.769531 3.703125 " clip-rule="nonzero"/></clipPath><clipPath id="eecb215597"><path d="M 8.347656 3.792969 L 21.652344 3.792969 C 22.84375 3.792969 23.988281 4.265625 24.828125 5.105469 C 25.671875 5.949219 26.144531 7.089844 26.144531 8.28125 L 26.144531 21.652344 C 26.144531 22.84375 25.671875 23.988281 24.828125 24.828125 C 23.988281 25.671875 22.84375 26.144531 21.652344 26.144531 L 8.347656 26.144531 C 7.15625 26.144531 6.011719 25.671875 5.171875 24.828125 C 4.328125 23.988281 3.855469 22.84375 3.855469 21.652344 L 3.855469 8.28125 C 3.855469 7.089844 4.328125 5.949219 5.171875 5.105469 C 6.011719 4.265625 7.15625 3.792969 8.347656 3.792969 Z M 8.347656 3.792969 " clip-rule="nonzero"/></clipPath><clipPath id="b1936d849b"><path d="M 0.769531 0.703125 L 23.144531 0.703125 L 23.144531 23.167969 L 0.769531 23.167969 Z M 0.769531 0.703125 " clip-rule="nonzero"/></clipPath><clipPath id="50a7b27e0d"><path d="M 5.347656 0.792969 L 18.652344 0.792969 C 19.84375 0.792969 20.988281 1.265625 21.828125 2.105469 C 22.671875 2.949219 23.144531 4.089844 23.144531 5.28125 L 23.144531 18.652344 C 23.144531 19.84375 22.671875 20.988281 21.828125 21.828125 C 20.988281 22.671875 19.84375 23.144531 18.652344 23.144531 L 5.347656 23.144531 C 4.15625 23.144531 3.011719 22.671875 2.171875 21.828125 C 1.328125 20.988281 0.855469 19.84375 0.855469 18.652344 L 0.855469 5.28125 C 0.855469 4.089844 1.328125 2.949219 2.171875 2.105469 C 3.011719 1.265625 4.15625 0.792969 5.347656 0.792969 Z M 5.347656 0.792969 " clip-rule="nonzero"/></clipPath><clipPath id="870574f6f9"><rect x="0" width="24" y="0" height="24"/></clipPath><clipPath id="58ccb04609"><path d="M 8 7.171875 L 21 7.171875 L 21 13 L 8 13 Z M 8 7.171875 " clip-rule="nonzero"/></clipPath></defs><g clip-path="url(#b8780befcf)"><g clip-path="url(#eecb215597)"><g transform="matrix(1, 0, 0, 1, 3, 3)"><g clip-path="url(#870574f6f9)"><g clip-path="url(#b1936d849b)"><g clip-path="url(#50a7b27e0d)"><path fill="#fafafa" d="M 0.855469 0.792969 L 23.144531 0.792969 L 23.144531 23.167969 L 0.855469 23.167969 Z M 0.855469 0.792969 " fill-opacity="1" fill-rule="nonzero"/></g></g></g></g></g></g><path stroke-linecap="round" transform="matrix(0.623684, 0, 0, 0.623684, 7.340177, 7.173368)" fill="none" stroke-linejoin="round" d="M 20.999929 11.690976 L 20.999929 5.001893 " stroke="#000000" stroke-width="1.75" stroke-opacity="1" stroke-miterlimit="4"/><path stroke-linecap="round" transform="matrix(0.623684, 0, 0, 0.623684, 7.340177, 7.173368)" fill="none" stroke-linejoin="round" d="M 22.002038 22.00018 L 20.123083 20.127487 " stroke="#000000" stroke-width="1.75" stroke-opacity="1" stroke-miterlimit="4"/><path stroke-linecap="round" transform="matrix(0.623684, 0, 0, 0.623684, 7.340177, 7.173368)" fill="none" stroke-linejoin="round" d="M 2.999531 11.997872 C 2.999531 12.386189 3.218743 12.76198 3.657166 13.125245 C 4.095589 13.482247 4.715644 13.807932 5.529858 14.083513 C 6.344073 14.365356 7.283551 14.584568 8.348292 14.741147 C 9.413034 14.897727 10.527881 14.985412 11.699097 14.997938 " stroke="#000000" stroke-width="1.75" stroke-opacity="1" stroke-miterlimit="4"/><path stroke-linecap="round" transform="matrix(0.623684, 0, 0, 0.623684, 7.340177, 7.173368)" fill="none" stroke-linejoin="round" d="M 2.999531 5.001893 L 2.999531 19.000114 C 2.999531 19.200536 3.062163 19.400958 3.181164 19.595117 C 3.300164 19.795539 3.475533 19.983434 3.713534 20.17133 C 3.945272 20.352962 4.233379 20.528331 4.577854 20.697437 C 4.916066 20.86028 5.304384 21.01686 5.736544 21.15465 C 6.168703 21.29244 6.638442 21.417704 7.14576 21.524178 C 7.653079 21.636915 8.185449 21.7246 8.749136 21.799758 C 9.312823 21.868653 9.889036 21.925022 10.484039 21.956338 C 11.079041 21.993917 11.680307 22.006443 12.281573 22.00018 " stroke="#000000" stroke-width="1.75" stroke-opacity="1" stroke-miterlimit="4"/><path stroke-linecap="round" transform="matrix(0.623684, 0, 0, 0.623684, 7.340177, 7.173368)" fill="none" stroke-linejoin="round" d="M 20.999929 17.998004 C 20.999929 18.398848 20.92477 18.780902 20.774454 19.15043 C 20.617874 19.513695 20.404926 19.839381 20.123083 20.121224 C 19.841239 20.403068 19.515553 20.622279 19.146025 20.772596 C 18.782761 20.922912 18.400706 20.99807 17.999862 20.99807 C 17.605282 20.99807 17.216964 20.922912 16.853699 20.772596 C 16.484171 20.622279 16.158486 20.403068 15.876642 20.121224 C 15.594799 19.839381 15.38185 19.513695 15.225271 19.15043 C 15.074954 18.780902 14.999796 18.398848 14.999796 17.998004 C 14.999796 17.603423 15.074954 17.221369 15.225271 16.851841 C 15.38185 16.482313 15.594799 16.162891 15.876642 15.881047 C 16.158486 15.599204 16.484171 15.379992 16.853699 15.229676 C 17.216964 15.073096 17.605282 14.997938 17.999862 14.997938 C 18.400706 14.997938 18.782761 15.073096 19.146025 15.229676 C 19.515553 15.379992 19.841239 15.599204 20.123083 15.881047 C 20.404926 16.162891 20.617874 16.482313 20.774454 16.851841 C 20.92477 17.221369 20.999929 17.603423 20.999929 17.998004 Z M 20.999929 17.998004 " stroke="#000000" stroke-width="1.75" stroke-opacity="1" stroke-miterlimit="4"/><g clip-path="url(#58ccb04609)"><path stroke-linecap="round" transform="matrix(0.623684, 0, 0, 0.623684, 7.340177, 7.173368)" fill="none" stroke-linejoin="round" d="M 20.999929 5.001893 C 20.999929 5.196051 20.94356 5.39021 20.824559 5.584369 C 20.711822 5.778528 20.542716 5.966423 20.317241 6.148056 C 20.091767 6.329688 19.809923 6.505057 19.484238 6.6679 C 19.152289 6.830743 18.782761 6.981059 18.363127 7.118849 C 17.943494 7.262903 17.492544 7.381903 16.997753 7.494641 C 16.509224 7.601115 15.98938 7.695063 15.444482 7.770221 C 14.899585 7.845379 14.335898 7.901748 13.753422 7.939327 C 13.177209 7.983169 12.588469 8.001959 11.99973 8.001959 C 11.41099 8.001959 10.822251 7.983169 10.246038 7.939327 C 9.663561 7.901748 9.099875 7.845379 8.554977 7.770221 C 8.01008 7.695063 7.490236 7.601115 7.001707 7.494641 C 6.506915 7.381903 6.055966 7.262903 5.636333 7.118849 C 5.216699 6.981059 4.847171 6.830743 4.515222 6.6679 C 4.189537 6.505057 3.913956 6.329688 3.682218 6.148056 C 3.456744 5.966423 3.287638 5.778528 3.1749 5.584369 C 3.0559 5.39021 2.999531 5.196051 2.999531 5.001893 C 2.999531 4.801471 3.0559 4.607312 3.1749 4.413153 C 3.287638 4.218994 3.456744 4.031099 3.682218 3.849466 C 3.913956 3.667834 4.189537 3.498728 4.515222 3.335885 C 4.847171 3.166779 5.216699 3.016462 5.636333 2.878672 C 6.055966 2.740882 6.506915 2.615619 7.001707 2.502881 C 7.490236 2.396407 8.01008 2.302459 8.554977 2.227301 C 9.099875 2.152143 9.663561 2.095774 10.246038 2.058195 C 10.822251 2.020616 11.41099 2.001826 11.99973 2.001826 C 12.588469 2.001826 13.177209 2.020616 13.753422 2.058195 C 14.335898 2.095774 14.899585 2.152143 15.444482 2.227301 C 15.98938 2.302459 16.509224 2.396407 16.997753 2.502881 C 17.492544 2.615619 17.943494 2.740882 18.363127 2.878672 C 18.782761 3.016462 19.152289 3.166779 19.484238 3.335885 C 19.809923 3.498728 20.091767 3.667834 20.317241 3.849466 C 20.542716 4.031099 20.711822 4.218994 20.824559 4.413153 C 20.94356 4.607312 20.999929 4.801471 20.999929 5.001893 Z M 20.999929 5.001893 " stroke="#000000" stroke-width="1.75" stroke-opacity="1" stroke-miterlimit="4"/></g></svg>